<?xml version="1.0" standalone="no"?>
<!DOCTYPE svg PUBLIC "-//W3C//DTD SVG 1.1//EN" "http://www.w3.org/Graphics/SVG/1.1/DTD/svg11.dtd" >
<svg xmlns="http://www.w3.org/2000/svg" xmlns:xlink="http://www.w3.org/1999/xlink" version="1.1">
<metadata>
Created by FontForge 20150715 at Tue Oct  6 22:24:23 2015
 By Jimmy Wärting
Copyright 1990-1993 Bitstream Inc.  All rights reserved.
</metadata>
<defs>
<font id="LifeBT-Bold" horiz-adv-x="2684" >
  <font-face 
    font-family="Life BT"
    font-weight="700"
    font-stretch="normal"
    units-per-em="2048"
    panose-1="2 2 8 2 5 3 5 2 3 4"
    ascent="1638"
    descent="-410"
    x-height="961"
    cap-height="1468"
    bbox="-389 -532 2693 2152"
    underline-thickness="182"
    underline-position="-318"
    unicode-range="U+0020-F002"
  />
<missing-glyph horiz-adv-x="2152" 
d="M134 0v2152h1884v-2152h-1884zM1884 134v1884h-1616v-1884h1616z" />
    <glyph glyph-name=".notdef" horiz-adv-x="2152" 
d="M134 0v2152h1884v-2152h-1884zM1884 134v1884h-1616v-1884h1616z" />
    <glyph glyph-name=".null" horiz-adv-x="0" 
 />
    <glyph glyph-name="nonmarkingreturn" horiz-adv-x="594" 
 />
    <glyph glyph-name="space" unicode=" " horiz-adv-x="594" 
 />
    <glyph glyph-name="exclam" unicode="!" horiz-adv-x="637" 
d="M311 299q68 0 108 -40.5t40 -111.5q0 -76 -41 -124t-105 -48q-66 0 -108.5 43.5t-42.5 112.5q0 71 44 119.5t105 48.5zM334 461h-47q-8 60 -20.5 146.5t-23.5 161t-29 183.5q-44 288 -44 338q0 94 36.5 145.5t104.5 51.5q65 0 102.5 -51.5t37.5 -145.5q0 -50 -45 -338
q-16 -99 -28 -181q-15 -97 -24.5 -166t-19.5 -144z" />
    <glyph glyph-name="quotedbl" unicode="&#x22;" horiz-adv-x="707" 
d="M543 852h-41l-80 461l-3 21l-1 16q0 52 28 83t76 31q47 0 77 -30q14 -15 21 -34t7 -46l-1 -15l-3 -26zM203 852h-41l-80 461l-2 14v23q0 51 28 82.5t74 31.5q49 0 76 -29.5t27 -80.5l-1 -25l-1 -16z" />
    <glyph glyph-name="numbersign" unicode="#" horiz-adv-x="1575" 
d="M705 852l-91 -252h265l88 252h-262zM711 1464h215l-148 -415h254l150 415h213l-148 -415h283l-74 -199h-278l-88 -248h292l-71 -196h-291l-148 -416h-215l148 416h-254l-150 -416h-215l148 416h-289l74 196h287l88 248h-304l74 199h299z" />
    <glyph glyph-name="dollar" unicode="$" horiz-adv-x="1188" 
d="M643 551v-489q104 9 162.5 60.5t58.5 137.5q0 79 -54.5 151.5t-166.5 139.5zM575 1352q-102 -9 -152 -49t-50 -113q0 -59 48 -117t154 -125v404zM575 1571h84v-144l97 -21q110 -26 157 -26h12q6 0 22 2l42 8l-3 -148l-1 -99v-94h-47q-40 137 -112 215q-68 74 -166 86
l-1 -455q206 -120 307 -247.5t101 -266.5q0 -172 -119 -288q-60 -59 -137 -91.5t-168 -32.5v-280h-84v282q-43 5 -181.5 43.5t-242.5 38.5l-14 1l4 163l4 260h45q40 -194 138 -301q52 -56 113 -86.5t134 -30.5v541q-213 117 -309 232t-96 251q0 157 108.5 253t292.5 96h20
v139z" />
    <glyph glyph-name="percent" unicode="%" horiz-adv-x="1894" 
d="M1640 520q0 88 -38.5 137.5t-108.5 49.5q-42 0 -85 -22t-75 -62q-57 -70 -90 -167t-33 -192q0 -86 41 -136t111 -50q110 0 194 129.5t84 312.5zM1481 791q141 0 223 -82t82 -224q0 -80 -26.5 -160.5t-76.5 -148.5q-78 -103 -169.5 -153t-204.5 -50q-134 0 -217.5 84.5
t-83.5 221.5q0 103 48 207t134 184q63 59 138 90q37 15 75 23t78 8zM739 1163q0 88 -39.5 137.5t-109.5 49.5q-41 0 -83 -22.5t-75 -63.5q-57 -69 -90 -164.5t-33 -192.5q0 -84 39.5 -135t108.5 -51q112 0 197 131t85 311zM1364 1432l84 -48l-911 -1411l-86 45zM580 1434
q141 0 223 -82t82 -226q0 -80 -27 -160t-76 -147q-74 -101 -166 -153t-202 -52q-138 0 -223 84t-85 224q0 102 48 205t135 184q61 58 137 90.5t154 32.5z" />
    <glyph glyph-name="ampersand" unicode="&#x26;" horiz-adv-x="1645" 
d="M520 735q-82 -31 -130 -102.5t-48 -163.5q0 -127 95.5 -225.5t221.5 -98.5q54 0 103 19t96 57q-98 108 -184.5 239.5t-153.5 274.5zM752 846q62 -129 133 -243.5t157 -223.5q77 99 125 190q45 87 45 138q0 40 -19.5 57.5t-72.5 26.5v63l88 -8l119 -2q28 0 73 1t62 1
q25 0 39.5 1t61.5 7v-63q-68 -8 -112.5 -34t-80.5 -81l-15 -22q-54 -81 -117.5 -167.5t-131.5 -173.5q33 -39 68.5 -68.5t78.5 -53.5q82 -44 156 -44q41 0 84 13q43 11 98 39l25 -39q-73 -89 -164.5 -138t-181.5 -49q-86 0 -172 44t-174 133q-121 -91 -233 -134t-228 -43
q-176 0 -289 107.5t-113 271.5q0 152 108 272t316 195q-32 90 -47.5 161.5t-15.5 131.5q0 165 101 272t257 107q152 0 247 -74t95 -188q0 -118 -95.5 -217t-274.5 -166zM723 913q104 75 153.5 153.5t49.5 168.5q0 76 -40 125t-102 49t-106 -51q-41 -52 -41 -133
q0 -65 20.5 -139t65.5 -173z" />
    <glyph glyph-name="quotesingle" unicode="'" horiz-adv-x="365" 
d="M203 852h-41l-80 461l-3 21l-1 16q0 52 28 83t76 31q49 0 76 -29.5t27 -80.5l-1 -25l-1 -16z" />
    <glyph glyph-name="parenleft" unicode="(" horiz-adv-x="862" 
d="M739 1491l33 -49q-154 -153 -231.5 -364t-77.5 -480q0 -291 87 -528t243 -369l-27 -41q-285 152 -425 371.5t-140 513.5t133 528t405 418z" />
    <glyph glyph-name="parenright" unicode=")" horiz-adv-x="862" 
d="M90 1489q283 -151 424 -368t141 -505q0 -301 -131.5 -535.5t-406.5 -420.5l-31 47q155 154 231 366t76 498q0 282 -88 514.5t-242 362.5z" />
    <glyph glyph-name="asterisk" unicode="*" horiz-adv-x="1155" 
d="M567 1053h17l12 -32q68 -169 68 -210q0 -38 -24 -62q-25 -22 -65 -22q-41 0 -65 23q-23 25 -23 67q0 15 4 32.5t16 51.5q18 54 60 152zM627 1085q96 -15 157 -29t83 -27q48 -24 48 -73q0 -35 -26 -63.5t-60 -28.5q-58 0 -176 164l-32 45zM524 1085l8 -11l-26 -38
q-124 -172 -184 -172q-33 0 -59.5 28.5t-26.5 63.5q0 47 49 73t239 56zM629 1133l-8 11l26 38q124 172 184 172q34 0 60 -29q27 -27 27 -63q0 -48 -49.5 -73.5t-239.5 -55.5zM530 1145l-6 -12q-184 27 -236 53q-26 14 -39 32t-13 44q0 35 25.5 63.5t57.5 28.5q60 0 179 -164
zM584 1165h-17l-64 163q-16 51 -16 71q0 43 24 67.5t64 24.5q39 0 64 -23.5t25 -62.5q0 -24 -15 -73t-65 -167z" />
    <glyph glyph-name="plus" unicode="+" horiz-adv-x="1706" 
d="M752 1221h202v-510h498v-199h-498v-512h-202v512h-498v199h498v510z" />
    <glyph glyph-name="comma" unicode="," horiz-adv-x="594" 
d="M66 -311v53q110 31 175.5 103.5t80.5 183.5q-20 -18 -44 -29q-10 -4 -23 -7t-26 -3q-47 0 -75.5 35.5t-28.5 93.5q0 72 48 123t118 51q72 0 118 -59.5t46 -159.5q0 -145 -105.5 -249t-283.5 -136z" />
    <glyph glyph-name="hyphen" unicode="-" horiz-adv-x="674" 
d="M61 614h553v-245h-553v245z" />
    <glyph glyph-name="period" unicode="." horiz-adv-x="594" 
d="M299 299q68 0 106.5 -40t38.5 -112q0 -76 -39.5 -124t-103.5 -48q-66 0 -108.5 43.5t-42.5 112.5q0 71 44 119.5t105 48.5z" />
    <glyph glyph-name="slash" unicode="/" horiz-adv-x="909" 
d="M694 1491h129l-647 -1708h-131z" />
    <glyph glyph-name="zero" unicode="0" horiz-adv-x="1188" 
d="M590 1327q-104 0 -159.5 -132t-55.5 -388q0 -329 66 -502.5t192 -173.5q104 0 151 126t47 423q0 304 -65 475.5t-176 171.5zM612 1432q234 0 366 -183.5t132 -515.5q0 -363 -135.5 -561.5t-384.5 -198.5q-243 0 -377.5 187.5t-134.5 531.5q0 335 147.5 537.5t386.5 202.5
z" />
    <glyph glyph-name="one" unicode="1" horiz-adv-x="1188" 
d="M705 1432h32v-1225q0 -91 22.5 -119.5t92.5 -38.5v-55l-122 6l-138 2q-26 0 -60.5 -0.5t-76.5 -1.5l-123 -6v55q69 8 93 37.5t24 120.5v848q0 70 -8 83q-6 15 -29 15q-12 0 -19 -1t-23 -7q-24 -6 -65 -25l-24 51q99 52 206 118.5t218 142.5z" />
    <glyph glyph-name="two" unicode="2" horiz-adv-x="1188" 
d="M346 276h459q109 0 149 11.5t66 38.5h39l-76 -225l-37 -107l-215 5l-219 1l-221 -1q-47 0 -127.5 -2.5t-97.5 -2.5v90l62 64q583 604 583 815q0 131 -63.5 204.5t-178.5 73.5q-105 0 -174.5 -55.5t-110.5 -171.5h-63q24 187 152 301.5t315 114.5q192 0 315 -113.5
t123 -290.5q0 -169 -138.5 -328.5t-541.5 -421.5z" />
    <glyph glyph-name="three" unicode="3" horiz-adv-x="1188" 
d="M244 1409h6q94 0 180.5 -2.5t187.5 -5.5l145 1l228 7l-407 -543h28q185 0 291.5 -105.5t106.5 -289.5q0 -215 -146.5 -357.5t-363.5 -142.5q-111 0 -211.5 41.5t-204.5 132.5l47 50q52 -45 119.5 -70t140.5 -25q135 0 221 89t86 231q0 137 -85 221q-44 42 -105 67
t-135 25l325 422h-278q-74 0 -117 -9.5t-78 -31.5h-47l41 181z" />
    <glyph glyph-name="four" unicode="4" horiz-adv-x="1188" 
d="M604 1114l-362 -520h362v520zM727 1432h145v-838h209v-217h-209v-404h-268v404h-491v217l310 427z" />
    <glyph glyph-name="five" unicode="5" horiz-adv-x="1188" 
d="M936 1432h49l-32 -162l-21 -119h-596l-47 -293q68 45 143 66.5t156 21.5q192 0 318 -129t126 -330q0 -52 -8 -96.5t-27 -90.5q-34 -87 -102 -159q-81 -81 -184 -125.5t-215 -44.5q-108 0 -205.5 35t-179.5 100l32 56q30 -17 63 -31.5t64 -24.5q62 -18 123 -18
q153 0 244.5 92.5t91.5 245.5q0 142 -85 228.5t-226 86.5q-61 0 -121 -16q-31 -8 -60 -19t-63 -30l117 733h528q46 0 71 5.5t46 17.5z" />
    <glyph glyph-name="six" unicode="6" horiz-adv-x="1188" 
d="M375 588q0 -94 25 -173t70 -142q84 -119 204 -119q92 0 142 65t50 184q0 166 -70.5 265.5t-183.5 99.5q-69 0 -130 -46t-107 -134zM981 1395l-10 -63l-77 13q-35 4 -48.5 4.5t-22.5 0.5q-219 0 -336 -174q-59 -88 -90.5 -215t-31.5 -293q73 151 164.5 225t207.5 74
q155 0 255 -122.5t100 -318.5q0 -242 -143.5 -397.5t-366.5 -155.5q-227 0 -356.5 159.5t-129.5 445.5q0 190 55.5 354.5t159.5 288.5q88 103 206 157t259 54q48 0 97.5 -9.5t107.5 -27.5z" />
    <glyph glyph-name="seven" unicode="7" horiz-adv-x="1188" 
d="M256 1409h6q105 0 202.5 -2.5t211.5 -5.5l159 1l250 7q-161 -391 -284 -744.5t-215 -691.5h-238q101 327 212.5 614.5t234.5 542.5h-349q-95 0 -143 -15t-82 -52h-49l41 170z" />
    <glyph glyph-name="eight" unicode="8" horiz-adv-x="1188" 
d="M497 661q-54 -73 -82 -140.5t-28 -133.5q0 -122 78.5 -203.5t200.5 -81.5q98 0 157.5 48t59.5 129q0 135 -363 368zM758 809q190 -98 263 -184.5t73 -204.5q0 -200 -141.5 -324.5t-372.5 -124.5q-218 0 -352 107.5t-134 279.5q0 131 89 220t266 135q-138 72 -209.5 165.5
t-71.5 200.5q0 153 125.5 253t322.5 100q198 0 309 -84t111 -232q0 -101 -68 -177t-210 -130zM684 854q56 56 84.5 121t28.5 137q0 104 -54 171t-139 67q-80 0 -133 -51.5t-53 -131.5q0 -78 61.5 -150.5t204.5 -162.5z" />
    <glyph glyph-name="nine" unicode="9" horiz-adv-x="1188" 
d="M123 98l43 49q80 -40 146 -62q65 -19 114 -19q171 0 277 175.5t106 467.5v28q-63 -120 -154 -186t-198 -66q-160 0 -266.5 125.5t-106.5 315.5q0 226 138.5 366t363.5 140q246 0 376 -166t130 -482q0 -377 -165.5 -595t-451.5 -218q-95 0 -181 32q-44 16 -86 39t-85 56z
M791 813q0 122 -19.5 216.5t-57.5 168.5q-70 139 -188 139q-83 0 -137.5 -71.5t-54.5 -188.5q0 -173 75.5 -277t202.5 -104q62 0 107.5 30t71.5 87z" />
    <glyph glyph-name="colon" unicode=":" horiz-adv-x="631" 
d="M317 299q66 0 106 -41.5t40 -110.5q0 -78 -39.5 -125t-104.5 -47q-66 0 -108.5 43.5t-42.5 112.5q0 71 44 119.5t105 48.5zM317 1020q67 0 106.5 -39.5t39.5 -110.5q0 -78 -39.5 -125t-104.5 -47q-67 0 -109 43t-42 113t44 118t105 48z" />
    <glyph glyph-name="semicolon" unicode=";" horiz-adv-x="631" 
d="M90 -311v53q110 31 174.5 104t79.5 183q-20 -18 -44.5 -28.5t-47.5 -10.5q-48 0 -76.5 35.5t-28.5 93.5q0 72 48 123t118 51q74 0 119 -59.5t45 -159.5q0 -144 -105.5 -249t-281.5 -136zM315 1020q68 0 107 -39.5t39 -110.5q0 -78 -39.5 -125t-104.5 -47q-67 0 -109 43
t-42 113t44 118t105 48z" />
    <glyph glyph-name="less" unicode="&#x3c;" horiz-adv-x="1706" 
d="M1442 1194v-219l-893 -365l893 -364v-219l-1178 485v199z" />
    <glyph glyph-name="equal" unicode="=" horiz-adv-x="1706" 
d="M254 496h1198v-199h-1198v199zM254 926h1198v-199h-1198v199z" />
    <glyph glyph-name="greater" unicode="&#x3e;" horiz-adv-x="1706" 
d="M264 1194l1178 -483v-199l-1178 -485v219l895 364l-895 365v219z" />
    <glyph glyph-name="question" unicode="?" horiz-adv-x="1161" 
d="M500 299q65 0 105 -41.5t40 -112.5q0 -76 -39.5 -123t-103.5 -47q-67 0 -109.5 43.5t-42.5 112.5q0 71 44 119.5t106 48.5zM524 461h-43l-1 23l-1 22q0 71 16 129q8 29 21.5 61.5t34.5 67.5q8 15 56 81t79 118q26 42 39.5 90t13.5 96q0 117 -67 197.5t-164 80.5
q-58 0 -86.5 -32.5t-28.5 -98.5l1 -34l1 -39q0 -83 -29 -110.5t-112 -27.5q-67 0 -94 26.5t-27 88.5q0 139 103 215t294 76q214 0 333.5 -86.5t119.5 -241.5q0 -79 -27 -147t-82 -129t-173 -151q-18 -14 -36 -27q-26 -20 -42 -35q-48 -42 -73 -95q-13 -28 -19.5 -56.5
t-6.5 -61.5z" />
    <glyph glyph-name="at" unicode="@" horiz-adv-x="2019" 
d="M1176 319q-61 -98 -134 -147t-161 -49q-141 0 -222 91t-81 251q0 58 12 112t38 109q49 106 144 197q68 62 148 97q38 16 79 25t82 9q96 0 150 -45t72 -138l49 164h190l-174 -618l-2 -7q-14 -59 -14 -87q0 -47 20.5 -74t54.5 -27t84 24t99 64q101 86 157 217t56 285
q0 273 -188.5 445t-489.5 172q-70 0 -134.5 -9t-127.5 -29q-124 -38 -228 -112q-172 -120 -266 -307.5t-94 -417.5q0 -334 210 -532q106 -99 246 -148t320 -49q164 0 317 50t310 157l39 -51q-149 -112 -317 -169t-349 -57q-188 0 -347.5 45.5t-277.5 133.5
q-150 111 -231.5 276.5t-81.5 364.5q0 155 51.5 298t153.5 265q144 174 345.5 267t436.5 93q348 0 558 -189t210 -503q0 -163 -58.5 -300.5t-170.5 -238.5q-59 -53 -126 -80.5t-138 -27.5q-97 0 -155 52q-30 26 -47 63.5t-17 84.5zM1118 948q-60 0 -111.5 -44.5
t-101.5 -143.5q-58 -115 -87.5 -215.5t-29.5 -182.5q0 -79 34.5 -125.5t92.5 -46.5q63 0 123 61t117 183q20 46 35.5 92t27 91.5t17.5 87.5t6 77q0 81 -32 123.5t-91 42.5z" />
    <glyph glyph-name="A" unicode="A" horiz-adv-x="1409" 
d="M594 1057l-195 -518h387zM655 1491h95l538 -1321q21 -47 52 -74q29 -23 85 -37v-65q-51 5 -82 7t-56 2l-171 3l-126 -3q-26 0 -50 -2q-84 -7 -102 -7v65q53 9 73.5 23.5t20.5 40.5q0 13 -5 28q-3 18 -12 39l-84 236h-481l-86 -236l-15 -43l-3 -28q0 -29 17 -41.5
t69 -18.5v-65l-99 6l-81 2q-12 0 -40 -1t-45 -1l-90 -6v65q56 9 90 36t58 87z" />
    <glyph glyph-name="B" unicode="B" horiz-adv-x="1415" 
d="M586 219q0 -82 21.5 -102.5t78.5 -20.5q112 0 176 79t64 220q0 172 -66.5 261t-195.5 89h-16.5t-20.5 -2h-15t-26 -4v-520zM586 836l26 -2h47q107 0 161 64q26 33 39 82t13 118q0 135 -56.5 213t-153.5 78h-15q-41 0 -51 -8.5t-10 -41.5v-503zM107 1468l140 -8l150 -2
q31 0 95 2.5t85 2.5l134 5q268 0 391 -77t123 -244q0 -153 -94.5 -235t-303.5 -109q111 0 205 -32q83 -28 145 -79q115 -94 115 -268q0 -198 -152 -313q-76 -57 -180.5 -86t-238.5 -29l-130 3l-190 3q-24 0 -72.5 -1t-73.5 -1l-149 -6v65q89 9 115.5 33t26.5 117v1044
q0 92 -27.5 118.5t-113.5 33.5v63z" />
    <glyph glyph-name="C" unicode="C" horiz-adv-x="1452" 
d="M1292 1435l3 -74q0 -99 4 -180q12 -244 12 -245h-58q-52 218 -155.5 327t-253.5 109q-180 0 -292 -148t-112 -390q0 -104 18.5 -196t55.5 -169q70 -148 182.5 -228.5t247.5 -80.5q100 0 196 51.5t185 153.5l41 -39q-97 -175 -250 -265t-352 -90q-138 0 -246.5 40.5
t-195.5 123.5q-111 106 -171.5 254.5t-60.5 321.5q0 156 49.5 295.5t147 252t234 172.5t294.5 60q49 0 98.5 -7t122.5 -25q134 -32 181 -32l27 2z" />
    <glyph glyph-name="D" unicode="D" horiz-adv-x="1702" 
d="M594 256q0 -92 24.5 -117.5t114.5 -25.5q239 0 375.5 163.5t136.5 452.5q0 302 -144.5 471.5t-402.5 169.5q-70 0 -87 -8.5t-17 -54.5v-7v-1044zM109 1468l177 -8l175 -2q23 0 88.5 2.5t94.5 2.5l185 5q383 0 582 -175t199 -511q0 -189 -65 -335t-202 -263
q-111 -96 -258 -140t-372 -44l-130 2l-163 2l-162 -3q-25 0 -77.5 -3.5t-71.5 -3.5v65q87 9 113 32.5t26 117.5v1044q0 94 -27 120q-26 23 -112 32v63z" />
    <glyph glyph-name="E" unicode="E" horiz-adv-x="1356" 
d="M123 1468l155 -3l644 -1l157 1l88 3l8 -156l11 -179h-53q-40 123 -130 178t-253 55q-108 0 -132 -17.5t-24 -82.5v-447h131q123 0 182.5 44.5t71.5 144.5h51l-1 -63l-3 -177l3 -182l1 -58h-51q-12 99 -71.5 144t-182.5 45h-131v-520q0 -64 16 -76q17 -10 90 -10
q231 0 345.5 57t173.5 199h63l-24 -98l-66 -275l-190 7l-277 3q-118 0 -208 -1t-174 -2q-60 0 -142 -3.5t-92 -3.5v65q87 9 113 32.5t26 117.5v1044q0 91 -23.5 115.5t-101.5 36.5v63z" />
    <glyph glyph-name="F" unicode="F" horiz-adv-x="1225" 
d="M125 1468l151 -3l656 -1l155 1l80 3l5 -78l16 -257h-60q-42 126 -109 174.5t-198 48.5h-147q-59 0 -69.5 -10.5t-10.5 -67.5v-455h123q133 0 190 43t72 152h55l-5 -127l-1 -125l1 -127q0 -29 2.5 -74t2.5 -53h-55q-12 107 -70.5 152t-191.5 45h-123v-500q0 -93 26 -118
q26 -23 117 -32v-65q-49 4 -80 6.5t-71 2.5l-183 3l-134 -3q-31 0 -50 -1t-104 -8v65q83 9 108 33.5t25 116.5v1044q0 93 -24.5 117.5t-98.5 34.5v63z" />
    <glyph glyph-name="G" unicode="G" horiz-adv-x="1722" 
d="M1393 1440l1 -213q0 -51 2.5 -131.5t2.5 -97.5l-56 -1q-44 178 -160.5 282.5t-264.5 104.5q-206 0 -334.5 -163t-128.5 -428q0 -73 9 -140t29 -133t47.5 -122.5t65.5 -110.5q56 -82 142 -127t184 -45q77 0 137.5 25.5t89.5 70.5v309q0 88 -21 112t-94 38l1 63l128 -8
l177 -2q34 0 88.5 1t74.5 1q36 0 53.5 1.5t65.5 6.5v-63q-78 -9 -102.5 -34t-24.5 -116v-295q-110 -122 -275.5 -187t-367.5 -65q-167 0 -303.5 48t-243.5 145q-110 100 -169 237q-28 68 -42 142.5t-14 161.5q0 130 33 249t98 211q111 162 281.5 243t400.5 81
q82 0 217.5 -26.5t186.5 -26.5l43 1z" />
    <glyph glyph-name="H" unicode="H" horiz-adv-x="1772" 
d="M109 1468l109 -8l159 -2q45 0 116 1t96 1q46 0 69 1.5t77 6.5v-63q-41 0 -69.5 -8.5t-44.5 -23.5q-27 -24 -27 -120v-438h584v438q0 92 -27 119q-27 24 -115 33v63l141 -8l191 -2q35 0 92 1t78 1q31 0 50 1t75 7v-63q-86 -8 -112.5 -32t-26.5 -120v-1044q0 -94 26 -119
q25 -22 113 -31v-65q-52 5 -80.5 7t-67.5 2l-182 3l-137 -3l-160 -9v65q89 9 115.5 32.5t26.5 117.5v493h-584v-493q0 -92 26.5 -116.5t114.5 -33.5v-65q-45 4 -76.5 6.5t-71.5 2.5l-184 3l-135 -3q-28 0 -54 -2q-89 -7 -105 -7v65q87 9 113 32.5t26 117.5v1044
q0 94 -27 120q-26 23 -112 32v63z" />
    <glyph glyph-name="I" unicode="I" horiz-adv-x="842" 
d="M109 1468l109 -8l159 -2q45 0 116 1t96 1q46 0 69 1.5t77 6.5v-63q-41 0 -69.5 -8.5t-44.5 -23.5q-27 -24 -27 -120v-1044q0 -92 26.5 -116.5t114.5 -33.5v-65q-45 4 -76.5 6.5t-71.5 2.5l-184 3l-135 -3q-28 0 -54 -2q-89 -7 -105 -7v65q87 9 113 32.5t26 117.5v1044
q0 94 -27 120q-26 23 -112 32v63z" />
    <glyph glyph-name="J" unicode="J" horiz-adv-x="842" 
d="M107 1468l116 -8l152 -2q45 0 116 1t96 1q46 0 69 1.5t77 6.5v-63q-42 0 -70.5 -8.5t-43.5 -23.5q-27 -24 -27 -120v-925q0 -90 -4 -159.5t-13 -119.5q-15 -99 -55 -162q-54 -90 -146.5 -156t-226.5 -108l-30 49q71 49 101 118t30 230v1233q0 94 -27 120q-26 23 -114 32
v63z" />
    <glyph glyph-name="K" unicode="K" horiz-adv-x="1495" 
d="M940 1468l101 -8l135 -2q27 0 73 1t64 1q26 0 42.5 1t65.5 7v-63q-42 0 -94.5 -31t-119 -91.5t-157 -161.5t-212.5 -251l493 -626l5 -6q131 -167 204 -179v-65q-51 5 -82 7t-57 2l-172 3l-125 -3q-29 0 -47 -1t-104 -8l-1 65q30 6 46 19t16 31q0 11 -6.5 26t-24.5 39
l-383 547v16l176 225q268 342 268 392q0 27 -24.5 39t-79.5 12v63zM109 1468l109 -8l157 -2q44 0 112.5 1t92.5 1q45 0 68 1.5t79 6.5v-63q-42 0 -70.5 -8.5t-43.5 -23.5q-27 -24 -27 -120v-1044q0 -92 26.5 -116.5t114.5 -33.5v-65q-50 5 -79 7t-65 2l-167 3l-165 -3
l-142 -9v65q87 9 113 32.5t26 117.5v1044q0 94 -27 120q-26 23 -112 32v63z" />
    <glyph glyph-name="L" unicode="L" horiz-adv-x="1313" 
d="M123 1468l131 -8l168 -2q35 0 92 1t79 1q32 0 51 1t79 7v-63q-81 -9 -105 -34t-24 -118v-1065q0 -55 16 -67q18 -10 86 -10q240 0 357.5 63t179.5 219h53l-51 -199l-43 -200l-190 7l-277 3q-118 0 -208 -1t-174 -2q-60 0 -142 -3.5t-92 -3.5v65q87 9 113 32.5t26 117.5
v1044q0 91 -23.5 115.5t-101.5 36.5v63z" />
    <glyph glyph-name="M" unicode="M" horiz-adv-x="1952" 
d="M127 1468l109 -8l147 -2q27 0 70.5 1t59.5 1q29 0 44 1.5t51 6.5l375 -1013l381 1013l125 -8l98 -2q24 0 65 1t58 1q24 0 39 1t63 7v-63q-65 -12 -86.5 -36.5t-21.5 -115.5v-1044q0 -93 24 -116.5t103 -33.5v-65q-51 5 -82 7t-56 2l-171 3l-151 -3q-28 0 -53 -2t-73 -7
v65q80 9 103.5 32t23.5 118v991l-452 -1192h-91l-450 1233v-1055q0 -67 24 -93t97 -34v-65q-35 5 -51 7t-38 2l-98 3l-85 -3l-101 -9v65q35 0 57 7.5t38 23.5q26 28 26 96v1170q-9 23 -38 35q-14 6 -35 10t-48 4v63z" />
    <glyph glyph-name="N" unicode="N" horiz-adv-x="1628" 
d="M70 1468l101 -8l130 -2q24 0 63 1t54 1q27 0 40.5 1.5t50.5 6.5l740 -962v770q0 68 -27 98q-13 14 -37 22.5t-56 8.5v63l75 -8l103 -2q23 0 61 1t52 1q26 0 37.5 1.5t45.5 6.5v-63q-33 0 -57.5 -9t-38.5 -23q-25 -28 -25 -97v-1303h-120l-881 1166v-953q0 -67 24.5 -94
t96.5 -33v-65q-35 5 -51 7t-38 2l-100 3l-85 -3l-101 -9v65q35 0 57 7.5t38 23.5q26 28 26 96v1080l-108 130l-33 7l-37 2v63z" />
    <glyph glyph-name="O" unicode="O" horiz-adv-x="1706" 
d="M1270 707q0 301 -119.5 484t-312.5 183q-175 0 -283.5 -145t-108.5 -387q0 -310 129.5 -512.5t321.5 -202.5q171 0 272 155t101 425zM879 1491q162 0 300 -57.5t246 -173.5q88 -93 138.5 -231t50.5 -292q0 -340 -216 -552t-562 -212q-337 0 -540.5 206.5t-203.5 547.5
q0 169 52.5 303t158.5 241t254 163.5t322 56.5z" />
    <glyph glyph-name="P" unicode="P" horiz-adv-x="1343" 
d="M594 705h33q145 0 212.5 81.5t67.5 257.5q0 151 -64 240.5t-173 89.5q-22 0 -40.5 -3.5t-35.5 -10.5v-655zM109 1468l128 -8l140 -2q28 0 98 2.5t97 2.5l173 5q269 0 387.5 -93.5t118.5 -305.5q0 -215 -147.5 -331.5t-419.5 -116.5h-13l-77 2v-414q0 -93 26 -118
q26 -23 117 -32v-65q-51 5 -81.5 7t-69.5 2l-183 3l-135 -3q-28 0 -54 -2q-89 -7 -105 -7v65q87 9 113 32.5t26 117.5v1044q0 94 -27 120q-26 23 -112 32v63z" />
    <glyph glyph-name="Q" unicode="Q" horiz-adv-x="1706" 
d="M1286 96q86 -71 175 -118q44 -23 86 -39.5t91 -28.5v-66h-51q-167 0 -308.5 36.5t-254.5 109.5q-39 -8 -92 -13l-109 -4q-327 0 -529 208t-202 546q0 169 52.5 303t159.5 241t254.5 163.5t320.5 56.5q162 0 300 -57.5t246 -173.5q88 -93 138.5 -231t50.5 -292
q0 -110 -21 -205t-65 -180q-84 -167 -242 -256zM1270 707q0 301 -119.5 484t-312.5 183q-175 0 -283.5 -145t-108.5 -387q0 -310 129.5 -512.5t321.5 -202.5q171 0 272 155t101 425z" />
    <glyph glyph-name="R" unicode="R" horiz-adv-x="1485" 
d="M586 715q13 0 21 -2h36q144 0 216.5 76t72.5 227q0 181 -72.5 269.5t-220.5 88.5q-32 0 -42.5 -12t-10.5 -62v-12v-573zM109 1468l125 -8l157 -2l183 3l155 3q294 0 422.5 -85t128.5 -277q0 -164 -84 -266.5t-250 -141.5l336 -471q67 -92 111 -128q42 -31 90 -36l-1 -65
l-83 7l-117 3l-133 -3q-22 0 -44 -2t-44 -5l-330 547q-33 57 -54.5 72.5t-58.5 15.5l-19 -1l-13 -1v-418q0 -92 26.5 -116.5t114.5 -33.5v-65q-50 5 -79 7t-65 2l-167 3l-165 -3l-142 -9v65q87 9 113 32.5t26 117.5v1044q0 94 -27 120q-26 23 -112 32v63z" />
    <glyph glyph-name="S" unicode="S" horiz-adv-x="1257" 
d="M1014 1454q0 -8 -1 -29t-1 -34v-107v-113v-35.5t2 -37.5h-45q-48 145 -129.5 218t-192.5 73q-96 0 -158.5 -50.5t-62.5 -128.5q0 -118 230 -240l39 -19.5t42 -24.5l25 -14q178 -99 254 -179q53 -56 82.5 -133t29.5 -164q0 -206 -141.5 -335.5t-370.5 -129.5
q-95 0 -241.5 42t-204.5 42h-20l-3 232l-1 229h57q51 -196 156.5 -300.5t250.5 -104.5q108 0 181 61.5t73 153.5q0 67 -37 120t-120 101q-46 26 -93.5 51t-72.5 38q-100 52 -133 75q-153 101 -211 188t-58 201q0 167 129 279t322 112q64 0 173 -23q54 -10 98 -16t69 -6h17
h13q10 2 14 2z" />
    <glyph glyph-name="T" unicode="T" horiz-adv-x="1280" 
d="M43 1468l190 -8l418 -2q97 0 199 0.5t208 1.5q40 0 101 4t82 4l-11 -214q0 -50 -1.5 -77.5t-6.5 -78.5h-53q-24 155 -73 205.5t-185 50.5h-100v-1145q0 -93 24 -116.5t103 -33.5v-65q-55 5 -87 7t-58 2l-177 3l-128 -3q-27 0 -52 -2q-87 -7 -104 -7v65q83 9 108 34
t25 116v1145h-74q-122 0 -198 -59t-125 -197h-50l14 180z" />
    <glyph glyph-name="U" unicode="U" horiz-adv-x="1620" 
d="M121 1468l105 -8l153 -2q44 0 112 1t91 1q43 0 65.5 1.5t73.5 6.5v-63q-78 -9 -102.5 -34t-24.5 -118v-749q0 -201 73.5 -281t250.5 -80q198 0 274 104t76 402v631q0 72 -27 98q-13 12 -41.5 19.5t-66.5 7.5v63l86 -8l120 -2q20 0 52 1t44 1q21 0 32 1.5t40 6.5v-63
q-62 0 -89 -27q-25 -28 -25 -96v-666q0 -67 -4 -127t-13 -111q-17 -102 -49 -159q-68 -125 -197.5 -187.5t-320.5 -62.5q-141 0 -251.5 37t-182.5 109q-67 67 -97 149.5t-30 247.5v741q0 92 -24 116t-103 36v63z" />
    <glyph glyph-name="V" unicode="V" horiz-adv-x="1403" 
d="M-22 1468l104 -8l151 -2q44 0 111 1t90 1q43 0 64 1.5t73 6.5v-63q-57 0 -83 -15q-23 -15 -23 -51q0 -11 9 -41q6 -20 10.5 -31.5t17.5 -43.5l317 -803l322 852l16 48l4 30q0 24 -27 39q-13 6 -34 11t-45 5v63l100 -8l94 -2q12 0 39 1t42 1q27 0 53 3q23 4 34 5v-63
q-47 0 -80.5 -36t-85.5 -167l-483 -1229h-139l-498 1276q-34 87 -68.5 121.5t-85.5 34.5z" />
    <glyph glyph-name="W" unicode="W" horiz-adv-x="1935" 
d="M17 1468l124 -8l172 -2q33 0 87 1t74 1q36 0 54 1.5t66 6.5v-63q-23 0 -40 -5.5t-34 -18.5q-26 -18 -26 -48v-16t3.5 -24.5t5.5 -26t9 -25.5l270 -776l160 526l-90 283q-19 62 -53 92t-94 39v63l125 -8l171 -2q34 0 88.5 1t74.5 1q36 0 54 1.5t66 6.5v-63
q-62 -9 -90.5 -24t-28.5 -38v-23q3 -12 5 -25t14 -52l229 -778l244 801q9 28 12 47l4 37q0 23 -28 38q-13 8 -34 12.5t-44 4.5v63l97 -8l93 -2q20 0 52 1t44 1q17 0 27 1t47 7v-63q-28 0 -51 -11.5t-43 -34.5q-36 -40 -72 -153l-403 -1233h-123l-244 858l-272 -858h-127
l-422 1276q-27 81 -63.5 118.5t-90.5 37.5z" />
    <glyph glyph-name="X" unicode="X" horiz-adv-x="1358" 
d="M-55 1468l123 -8l178 -2q51 0 130 1t106 1q51 0 77 1.5t86 6.5v-63q-57 0 -88 -18.5t-31 -55.5q0 -11 1 -17t7 -20l25 -49l182 -295l246 318q6 7 13 18t13 21q9 20 9 34q0 26 -34 44q-17 9 -40.5 14.5t-50.5 5.5v63l107 -8l131 -2q25 0 68 1t61 1q31 0 46.5 1.5t61.5 6.5
v-63q-122 0 -289 -213l-14 -18l-256 -330l367 -584q66 -105 127 -153t125 -48v-65q-51 4 -84.5 6.5t-74.5 2.5l-192 3l-134 -3l-216 -9v65q57 0 90 18t33 50q0 13 -10 39.5t-25 50.5l-219 350l-293 -383q-12 -15 -19 -32q-2 -7 -4 -14.5t-3 -12.5q0 -29 23.5 -43t100.5 -23
l1 -65l-19 1q-54 0 -107.5 3.5t-111.5 7.5q-19 0 -60 -3q-97 -7 -154 -7l-24 -2v65q124 0 303 231l297 384l-333 528q-65 104 -125.5 153.5t-118.5 49.5h-8v63z" />
    <glyph glyph-name="Y" unicode="Y" horiz-adv-x="1331" 
d="M-53 1468l114 -8l164 -2q48 0 121 1t98 1q48 0 72.5 1.5t77.5 6.5v-63q-64 -8 -92.5 -25t-28.5 -47q0 -20 32 -77l7 -13l256 -455l272 443q28 48 36.5 68t8.5 34q0 31 -26.5 48t-89.5 24v63l88 -8l114 -2q23 0 61.5 1t53.5 1q26 0 39.5 1.5t50.5 6.5v-63
q-42 -4 -83.5 -44.5t-123.5 -166.5l-346 -530v-455q0 -95 28 -120q16 -13 48.5 -21.5t79.5 -8.5v-65l-160 9l-176 3l-145 -3l-168 -9v65q49 0 83 7.5t51 20.5q30 24 30 122v448l-316 535q-70 120 -122 164q-27 25 -53 37t-56 12v63z" />
    <glyph glyph-name="Z" unicode="Z" horiz-adv-x="1448" 
d="M191 1468l235 -8l397 -2q66 0 172 1t146 1q49 0 93 2q131 6 140 6l-860 -1349h148q194 0 327.5 18t188.5 53q45 29 77 86.5t54 149.5h53l-11 -202l-6 -230l-274 5l-328 1l-374 -1q-74 0 -185.5 -2.5t-127.5 -2.5l851 1358h-170q-276 0 -373 -57.5t-131 -215.5h-63l15 191
z" />
    <glyph glyph-name="bracketleft" unicode="[" horiz-adv-x="862" 
d="M248 1464h497v-90h-260v-1589h260v-90h-497v1769z" />
    <glyph glyph-name="backslash" unicode="\" horiz-adv-x="909" 
d="M78 1491h131l647 -1708h-129z" />
    <glyph glyph-name="bracketright" unicode="]" horiz-adv-x="862" 
d="M117 1464h495v-1769h-495v90h258v1589h-258v90z" />
    <glyph glyph-name="asciicircum" unicode="^" horiz-adv-x="2048" 
d="M905 1462h236l491 -565h-112l-498 373l-498 -373h-112z" />
    <glyph glyph-name="underscore" unicode="_" horiz-adv-x="1024" 
d="M0 -279h1024v-204h-1024v204z" />
    <glyph glyph-name="grave" unicode="`" horiz-adv-x="1024" 
d="M420 1456l334 -346h-107l-395 207q-33 16 -52.5 29.5t-32.5 29.5q-24 27 -24 66q0 47 32.5 79.5t80.5 32.5q39 0 72 -20q32 -17 92 -78z" />
    <glyph glyph-name="a" unicode="a" horiz-adv-x="1059" 
d="M633 526q-57 0 -103 -17t-82 -48q-65 -54 -65 -144q0 -67 34.5 -105t94.5 -38q19 0 35.5 3t32.5 11q29 13 53 43v295zM901 637v-432q0 -35 6.5 -51t22.5 -17q16 0 29 3.5t26 13.5v-62q-48 -57 -102.5 -87t-110.5 -30q-67 0 -103 45q-17 23 -26.5 57.5t-9.5 77.5
q-85 -90 -164 -136t-152 -46q-98 0 -163.5 72.5t-65.5 183.5q0 156 138 251t407 122v172q0 61 -31 94t-86 33q-59 0 -85 -30q-13 -16 -21.5 -44.5t-8.5 -69.5q0 -43 -9.5 -71t-24.5 -38q-29 -19 -117 -19q-60 0 -86 21q-23 21 -23 75q0 132 101 196t305 64
q187 0 270.5 -81.5t83.5 -266.5z" />
    <glyph glyph-name="b" unicode="b" horiz-adv-x="1137" 
d="M422 172q33 -34 73 -56q38 -18 78 -18q100 0 163 94.5t63 249.5q0 165 -62 263t-162 98q-30 0 -70 -15.5t-83 -46.5v-569zM383 1544h39v-725q86 87 159.5 125.5t153.5 38.5q159 0 250.5 -118.5t91.5 -327.5q0 -245 -125.5 -405.5t-316.5 -160.5q-71 0 -131.5 25
t-114.5 76q-40 -19 -49 -24q-18 -9 -47 -26l-88 -49h-62v1291q0 69 -19 89q-10 12 -28 18.5t-45 6.5v58q81 12 163 38.5t169 69.5z" />
    <glyph glyph-name="c" unicode="c" horiz-adv-x="934" 
d="M858 352l47 -30q-63 -171 -169.5 -260t-243.5 -89q-196 0 -314.5 129.5t-118.5 343.5q0 243 137 391t359 148q143 0 229 -72t86 -192q0 -66 -28 -90.5t-109 -24.5q-73 0 -102 22t-35 81l-3 38q0 78 -25.5 119t-69.5 41q-77 0 -136 -90t-59 -221q0 -176 78.5 -278.5
t214.5 -102.5q82 0 148 35t114 102z" />
    <glyph glyph-name="d" unicode="d" horiz-adv-x="1122" 
d="M680 676q0 86 -37 131t-111 45q-94 0 -153.5 -84.5t-59.5 -224.5q0 -165 63 -268t163 -103q70 0 102.5 44t32.5 140v320zM918 1544h38v-1306q0 -74 19 -93q10 -9 31 -15.5t48 -6.5l1 -53q-82 -15 -153.5 -39t-143.5 -58h-56v201q-72 -97 -154.5 -149t-166.5 -52
q-147 0 -233.5 123.5t-86.5 335.5q0 250 110 400.5t290 150.5q66 0 122.5 -30t96.5 -91v402q0 69 -24 91.5t-93 22.5v58q95 9 182 37q40 13 85 31t88 40z" />
    <glyph glyph-name="e" unicode="e" horiz-adv-x="940" 
d="M864 582h-579q0 -91 20.5 -158.5t60.5 -118.5q76 -94 212 -94q80 0 150.5 36t121.5 105l47 -33q-63 -174 -169.5 -261t-256.5 -87q-190 0 -300 131t-110 359q0 240 117.5 380t319.5 140q158 0 262 -106t104 -273v-20zM598 655v9q0 108 -38.5 169.5t-106.5 61.5
q-76 0 -122 -61q-22 -30 -33 -70.5t-11 -95.5v-13h311z" />
    <glyph glyph-name="f" unicode="f" horiz-adv-x="680" 
d="M455 1229v-273h161v-82h-161v-667q0 -93 22 -122q23 -27 90 -36v-55l-113 6l-128 2q-24 0 -67 -1t-62 -1l-115 -6v55q57 12 76.5 40t19.5 118v667h-88v82h88v11q0 293 85 435t261 142q113 0 172.5 -51t59.5 -150q0 -42 -17.5 -60.5t-60.5 -18.5q-82 0 -96 69l-5 56
q0 79 -49 79q-41 0 -57 -50.5t-16 -188.5z" />
    <glyph glyph-name="g" unicode="g" horiz-adv-x="1053" 
d="M370 -52q-25 -32 -41 -67q-14 -34 -14 -63q0 -75 70 -120.5t184 -45.5q112 0 179 40t67 105q0 108 -368 144zM752 887l51 35q42 28 68.5 39.5t50.5 11.5q42 0 68 -26t26 -70q0 -33 -23.5 -56.5t-56.5 -23.5q-32 0 -59 28q-25 28 -29 29q-9 0 -33 -8l-18 -6
q37 -47 55 -104t18 -130q0 -146 -102.5 -238t-267.5 -92l-53 3q-27 3 -66 12q-25 -18 -37 -34t-12 -30q0 -29 162 -50l75 -9l13 -2q230 -30 292 -78q42 -31 67.5 -84.5t25.5 -112.5q0 -161 -145 -259.5t-390 -98.5q-186 0 -282.5 56t-96.5 163q0 66 54 119.5t165 95.5
q-89 20 -134.5 55.5t-45.5 83.5q0 50 52.5 98.5t172.5 110.5q-99 48 -151.5 129.5t-52.5 184.5q0 149 112 252.5t275 103.5q69 0 132.5 -24.5t119.5 -73.5zM463 893q-50 0 -80.5 -38t-30.5 -101q0 -151 56 -253t135 -102q48 0 73 35.5t25 104.5q0 153 -52 253.5t-126 100.5z
" />
    <glyph glyph-name="h" unicode="h" horiz-adv-x="1198" 
d="M416 1544h39v-749q87 102 157.5 145t147.5 43q131 0 201.5 -77t70.5 -220v-479q0 -90 19 -117.5t77 -40.5v-55l-110 6l-125 2q-23 0 -64.5 -1t-59.5 -1l-110 -6v55q57 12 77 41t20 117v452q0 75 -35 113.5t-103 38.5q-36 0 -73 -16.5t-90 -57.5v-530q0 -90 19 -117.5
t77 -40.5v-55l-111 6l-125 2q-23 0 -64.5 -1t-59.5 -1l-109 -6v55q57 12 76.5 40t19.5 118v1057q0 69 -18 88t-74 27v56q86 14 165 40t165 69z" />
    <glyph glyph-name="i" unicode="i" horiz-adv-x="612" 
d="M377 983h78v-776q0 -90 19 -117.5t77 -40.5v-55l-111 6l-125 2q-23 0 -64.5 -1t-59.5 -1l-109 -6v55q57 12 76.5 40t19.5 118v514q0 72 -20 91q-9 9 -29 15.5t-47 6.5v55q63 9 135 33q35 11 74.5 26t85.5 35zM313 1444q67 0 105.5 -40t38.5 -112q0 -73 -42 -117.5
t-112 -44.5q-63 0 -105 43.5t-42 110.5q0 72 42.5 116t114.5 44z" />
    <glyph glyph-name="j" unicode="j" horiz-adv-x="604" 
d="M377 983h76v-879q0 -282 -78 -425.5t-232 -143.5q-90 0 -137 41t-47 121q0 55 21 74.5t75 19.5q49 0 66.5 -18.5t17.5 -85.5q0 -50 7.5 -64t27.5 -14q23 0 38 27q13 28 13 77l-25 160q-24 150 -24 297v551q0 71 -18 89t-78 24v55q74 13 143 35q80 26 154 59zM297 1444
q67 0 105 -41t38 -113t-41.5 -116t-111.5 -44q-63 0 -104.5 43.5t-41.5 110.5q0 72 42.5 116t113.5 44z" />
    <glyph glyph-name="k" unicode="k" horiz-adv-x="1114" 
d="M698 960l119 -7l74 -1q12 0 42.5 1t32.5 1l117 6v-51q-30 0 -66 -16t-75 -45q-76 -57 -252 -246l277 -385q61 -87 99 -125q35 -34 68 -45l1 -53l-112 6l-124 2q-22 0 -63 -1t-59 -1l-105 -6v53q33 14 44 23t11 20q0 10 -6 25l-19 32l-229 351l186 209q56 60 79.5 94.5
t23.5 54.5q0 15 -15 27t-49 26v51zM416 1544h39v-1337q0 -90 19 -117.5t77 -40.5v-55l-111 6l-125 2q-23 0 -64.5 -1t-59.5 -1l-109 -6v55q57 12 76.5 40t19.5 118v1057q0 69 -18 88t-74 27v56q86 14 165 40t165 69z" />
    <glyph glyph-name="l" unicode="l" horiz-adv-x="635" 
d="M416 1544h39v-1337q0 -90 19 -117.5t77 -40.5v-55l-111 6l-125 2q-23 0 -64.5 -1t-59.5 -1l-109 -6v55q57 12 76.5 40t19.5 118v1057q0 69 -18 88t-74 27v56q86 14 165 40t165 69z" />
    <glyph glyph-name="m" unicode="m" horiz-adv-x="1747" 
d="M999 801q45 48 86.5 82.5t80.5 56t77.5 32.5t79.5 11q118 0 187 -78.5t69 -218.5v-479q0 -89 18 -117t74 -41v-55l-106 6l-119 2q-23 0 -64.5 -1t-59.5 -1l-112 -6v55q54 11 73.5 41.5t19.5 116.5v452q0 70 -33.5 111t-89.5 41q-18 0 -34.5 -4t-41.5 -15q-42 -19 -90 -55
v-530q0 -84 19 -116q20 -30 73 -42v-55l-107 6l-120 2q-22 0 -63 -1t-59 -1l-108 -6v55q50 12 71 43q19 32 19 115v452q0 74 -32 113t-93 39q-27 0 -64 -17q-19 -9 -40.5 -22t-54.5 -35v-530q0 -84 18 -115t70 -43v-55l-106 6l-122 2q-21 0 -62 -1t-60 -1l-111 -6v55
q57 12 76.5 40t19.5 118v514q0 72 -20 91q-9 9 -29 15.5t-47 6.5v55q63 9 135 33q35 11 74.5 26t85.5 35h55v-199q90 106 168 153.5t162 47.5q85 0 144 -45.5t93 -138.5z" />
    <glyph glyph-name="n" unicode="n" horiz-adv-x="1198" 
d="M377 983h55v-199q89 104 170.5 151.5t173.5 47.5q118 0 187 -78.5t69 -218.5v-479q0 -90 19 -117.5t77 -40.5v-55l-110 6l-125 2q-23 0 -64.5 -1t-59.5 -1l-110 -6v55q57 12 77 41t20 117v452q0 75 -35 113.5t-103 38.5q-42 0 -84 -18.5t-79 -55.5v-530q0 -90 19 -117.5
t77 -40.5v-55l-111 6l-125 2q-23 0 -64.5 -1t-59.5 -1l-109 -6v55q57 12 76.5 40t19.5 118v514q0 72 -20 91q-9 9 -29 15.5t-47 6.5v55q63 9 135 33q35 11 74.5 26t85.5 35z" />
    <glyph glyph-name="o" unicode="o" horiz-adv-x="1112" 
d="M524 872q-87 0 -141.5 -79t-54.5 -211q0 -194 83 -327.5t195 -133.5q86 0 134 73.5t48 208.5q0 206 -75.5 337.5t-188.5 131.5zM59 463q0 223 144.5 371.5t363.5 148.5q209 0 348.5 -144.5t139.5 -361.5q0 -222 -142.5 -364t-365.5 -142q-219 0 -353.5 135.5
t-134.5 356.5z" />
    <glyph glyph-name="p" unicode="p" horiz-adv-x="1128" 
d="M449 250q41 -65 90.5 -100t103.5 -35q83 0 129.5 85t46.5 238q0 156 -60.5 248t-164.5 92q-40 0 -77.5 -14t-67.5 -43v-471zM373 985h53v-197q71 95 154.5 146t167.5 51q148 0 234.5 -122.5t86.5 -336.5q0 -236 -111 -381t-290 -145q-67 0 -123 30t-96 89v-361
q0 -89 20.5 -117.5t87.5 -39.5v-56l-116 7l-130 2q-24 0 -67.5 -1t-62.5 -1l-115 -7v56q64 9 85 38.5t21 118.5v967q0 71 -20 90q-9 10 -28.5 16.5t-47.5 6.5v53q70 12 146.5 36.5t150.5 57.5z" />
    <glyph glyph-name="q" unicode="q" horiz-adv-x="1102" 
d="M684 705q0 83 -38.5 129.5t-110.5 46.5q-95 0 -154 -85t-59 -227q0 -161 63.5 -264.5t157.5 -103.5q73 0 107 43t34 141v320zM713 899l215 84h33v-1225q0 -89 20.5 -117.5t87.5 -39.5v-56l-116 7l-130 2q-24 0 -67.5 -1t-62.5 -1l-115 -7v56q64 9 85 38.5t21 118.5v445
q-46 -96 -123.5 -147.5t-177.5 -51.5q-145 0 -234 122q-44 62 -66 141.5t-22 183.5q0 230 121 381t299 151q54 0 110.5 -20t121.5 -64z" />
    <glyph glyph-name="r" unicode="r" horiz-adv-x="852" 
d="M377 983h55v-233q72 126 129 177.5t121 51.5q76 0 105.5 -41t29.5 -154q0 -81 -26 -113t-91 -32q-54 0 -70.5 8.5t-33.5 34.5q-5 7 -14 32q-15 46 -41 46q-12 0 -30 -17q-18 -15 -56 -59v-477q0 -92 22 -120.5t88 -37.5v-55l-113 6l-128 2q-22 0 -65 -1t-63 -1l-114 -6
v55q57 12 76.5 40t19.5 118v514q0 72 -20 91q-9 9 -29 15.5t-47 6.5v55q63 9 135 33q35 11 74.5 26t85.5 35z" />
    <glyph glyph-name="s" unicode="s" horiz-adv-x="893" 
d="M725 954l3 -104l7 -131h-47q-24 93 -84 144.5t-139 51.5q-56 0 -90.5 -31.5t-34.5 -82.5q0 -74 139 -146l80 -43q126 -70 174.5 -143.5t48.5 -177.5q0 -139 -90.5 -228.5t-230.5 -89.5q-31 0 -73.5 7t-92.5 22q-102 29 -143 29l-12 -1l-11 -1l4 134l2 128v53h51
q21 -123 96.5 -197.5t176.5 -74.5q62 0 97.5 31.5t35.5 86.5q0 63 -140 142l-18 10q-192 105 -249.5 177.5t-57.5 174.5q0 126 85.5 207.5t219.5 81.5q46 0 125 -17.5t107 -17.5l37 1q16 2 24 5z" />
    <glyph glyph-name="t" unicode="t" horiz-adv-x="659" 
d="M342 1251h82v-295h197v-82h-197v-600q0 -75 22 -115q23 -38 68 -38q15 0 21.5 1.5t20.5 7.5t40 26l35 -39q-62 -74 -127.5 -109t-143.5 -35q-105 0 -155.5 61t-50.5 189v651h-103v44q112 30 183.5 113.5t107.5 219.5z" />
    <glyph glyph-name="u" unicode="u" horiz-adv-x="1198" 
d="M414 983h30v-688q0 -75 34.5 -112.5t103.5 -37.5q41 0 82 19q43 18 81 55v539q0 45 -14.5 58t-64.5 13v54q41 6 80 14.5t82 22.5q78 25 161 63h31v-762q0 -60 16 -77q16 -14 67 -19l1 -59q-62 -6 -135.5 -28.5t-157.5 -64.5h-49l-14 179q-54 -85 -133.5 -132t-176.5 -47
q-128 0 -199 77t-71 218v482q0 47 -18 62t-76 15v55q34 4 67 11t78 21q84 24 195 69z" />
    <glyph glyph-name="v" unicode="v" horiz-adv-x="977" 
d="M-8 960l148 -7l91 -1q12 0 105.5 4t132.5 4l6 1v-53q-46 -8 -61 -19.5t-15 -34.5l4 -27q1 -7 4 -18.5t7 -20.5l153 -438l170 440l11 39l4 25q0 25 -21 39t-63 14v53l92 -7l57 -1h21h18q13 2 20 2l91 6l-1 -53q-35 -3 -59.5 -30.5t-62.5 -112.5l-344 -791h-68l-317 795
q-28 69 -58 104t-65 35v53z" />
    <glyph glyph-name="w" unicode="w" horiz-adv-x="1518" 
d="M-8 960l148 -7l91 -1q12 0 105.5 4t132.5 4l6 1v-53q-46 -8 -61 -19.5t-15 -34.5v-16q3 -11 5 -22.5t10 -27.5l182 -458l141 303l-53 135q-26 68 -57 103.5t-66 35.5v53l148 -7l92 -1q13 0 44 1t50 1l147 6v-53q-46 -6 -60 -19q-15 -11 -15 -34l4 -27q1 -9 2.5 -15.5
t7.5 -23.5l149 -438l170 441q6 16 9 32l4 29q0 26 -15.5 38t-66.5 18v52l74 -5l75 -1l73 1q32 0 75 5v-52q-32 -3 -59 -31q-23 -26 -62 -113l-342 -791h-68l-211 531l-260 -531h-63l-342 793q-38 91 -63.5 114.5t-65.5 27.5v52z" />
    <glyph glyph-name="x" unicode="x" horiz-adv-x="961" 
d="M-12 960l152 -7l93 -1q12 0 108 4t136 4l6 1v-54q-31 -3 -49 -17q-18 -12 -18 -32q0 -14 21 -49l6 -9l106 -159l102 139q5 7 20 31q10 16 13.5 24t5.5 21q0 19 -18 33t-51 18v54l5 -1q38 0 74 -2.5t78 -5.5q9 0 30 1t34 1l98 6v-53q-40 -6 -87.5 -43t-92.5 -98l-160 -207
l227 -330q72 -104 105 -137.5t65 -42.5v-55l-122 6l-136 2q-24 0 -68.5 -1t-64.5 -1l-119 -6l1 55q35 7 55 21t20 32q0 16 -8 35q-6 22 -20 41l-138 209l-141 -194q-8 -10 -15 -21.5t-14.5 -30t-9.5 -35.5q0 -20 20.5 -35.5t57.5 -21.5v-55l-76 6l-84 2q-15 0 -43.5 -1
t-41.5 -1l-77 -6l1 55q42 12 80.5 45.5t109.5 130.5l176 244l-213 315q-34 51 -69 83q-31 26 -70 40v53z" />
    <glyph glyph-name="y" unicode="y" horiz-adv-x="944" 
d="M-4 960l143 -6l92 -2q13 0 44 1t50 1l148 6v-52q-32 0 -56 -17q-18 -12 -18 -37v-16q3 -11 5 -22.5t10 -27.5l166 -415l123 396l3 11q13 47 13 64q0 25 -21 40t-65 23v54l6 -1q38 0 72.5 -2.5t74.5 -5.5h21h18q13 2 20 2l81 6v-53q-36 -9 -62 -45.5t-65 -146.5l-277 -781
q-88 -251 -155 -324t-177 -73q-92 0 -135 41.5t-43 134.5q0 101 21 127.5t102 26.5q48 0 64 -12.5t20 -58.5l2 -34q0 -81 49 -81q32 0 56.5 30.5t54.5 112.5l61 166l-328 779l-6 15q-48 116 -112 123v53z" />
    <glyph glyph-name="z" unicode="z" horiz-adv-x="993" 
d="M109 963l177 -7l220 -2q39 0 110 1t102 1q39 0 103 3.5t80 3.5l-481 -869h90q176 0 243.5 43.5t92.5 159.5h51l-15 -272v-14q0 -9 -2 -17l-213 5l-157 1l-205 -1l-253 -5l483 874h-113q-139 0 -191.5 -39t-83.5 -147h-50l7 139z" />
    <glyph glyph-name="braceleft" unicode="{" horiz-adv-x="1024" 
d="M852 1516v-61q-118 0 -163.5 -53.5t-45.5 -211.5v-133q0 -224 -53 -306t-197 -116q143 -32 196.5 -113t53.5 -307v-135q0 -159 44 -210q22 -26 64 -40.5t101 -14.5v-59q-235 0 -320.5 73t-85.5 273v193q0 166 -55.5 226.5t-212.5 76.5v76q155 15 211.5 76.5t56.5 226.5
v192q0 201 86 274t320 73z" />
    <glyph glyph-name="bar" unicode="|" horiz-adv-x="1024" 
d="M410 1565h206v-2048h-206v2048z" />
    <glyph glyph-name="braceright" unicode="}" horiz-adv-x="1024" 
d="M172 1516q236 0 322 -72.5t86 -274.5v-192q0 -165 55.5 -226t212.5 -77v-76q-156 -15 -212 -77q-28 -30 -42 -85.5t-14 -140.5v-193q0 -197 -85 -271.5t-311 -74.5h-12v59q117 0 163 54t46 211v135q0 112 13 189t40 118q53 80 197 113q-142 33 -196 115t-54 307v133
q0 155 -46 210t-163 55v61z" />
    <glyph glyph-name="asciitilde" unicode="~" horiz-adv-x="1706" 
d="M1530 803v-221q-105 -71 -197 -104.5t-182 -33.5q-36 0 -50 1.5t-40.5 6t-47 9.5t-46.5 14l-71 25q-219 75 -333 75q-43 0 -86.5 -9t-91.5 -29q-94 -37 -207 -119v221q103 70 201.5 106.5t185.5 36.5q118 0 291 -58l4 -1l55 -19q157 -55 240 -55q41 0 85 9t90 28
q88 35 200 117z" />
    <glyph glyph-name="quotesinglbase" unicode="&#x201a;" horiz-adv-x="594" 
d="M66 -311v53q110 31 175.5 103.5t80.5 183.5q-20 -18 -44 -29q-10 -4 -23 -7t-26 -3q-47 0 -75.5 35.5t-28.5 93.5q0 72 48 123t118 51q72 0 118 -59.5t46 -159.5q0 -145 -105.5 -249t-283.5 -136z" />
    <glyph glyph-name="florin" unicode="&#x192;" horiz-adv-x="1188" 
d="M729 883h229l-16 -80h-227q-32 -170 -46 -242q-17 -87 -44 -212q-23 -107 -41 -183q-57 -252 -103 -367q-61 -159 -137 -231t-182 -72q-73 0 -120.5 42.5t-47.5 107.5q0 46 26.5 75t67.5 29q43 0 66.5 -26.5t23.5 -75.5v-39q0 -22 7.5 -30.5t23.5 -8.5q68 0 182 723
q25 166 44 286q25 161 36 224h-195l19 80h194q38 259 146 404t262 145q81 0 133.5 -45.5t52.5 -116.5q0 -45 -25.5 -70.5t-70.5 -25.5t-72.5 25.5t-27.5 70.5l3 32l3 27q0 17 -6 24.5t-21 8.5q-60 0 -136 -472z" />
    <glyph glyph-name="quotedblbase" unicode="&#x201e;" horiz-adv-x="1075" 
d="M547 -311v53q110 31 175.5 103.5t80.5 183.5q-20 -18 -44.5 -28.5t-47.5 -10.5q-48 0 -76.5 35.5t-28.5 93.5q0 72 48 123t118 51q73 0 117.5 -59.5t44.5 -159.5q0 -144 -105.5 -249t-281.5 -136zM66 -311v53q110 31 175.5 103.5t80.5 183.5q-20 -18 -44 -29
q-10 -4 -23 -7t-26 -3q-47 0 -75.5 35.5t-28.5 93.5q0 72 48 123t118 51q72 0 118 -59.5t46 -159.5q0 -145 -105.5 -249t-283.5 -136z" />
    <glyph glyph-name="ellipsis" unicode="&#x2026;" horiz-adv-x="2048" 
d="M344 299q68 0 106.5 -40t38.5 -112q0 -76 -39.5 -124t-103.5 -48q-66 0 -108.5 43.5t-42.5 112.5q0 71 44 119.5t105 48.5zM1026 299q68 0 106.5 -40t38.5 -112q0 -76 -39.5 -124t-103.5 -48q-66 0 -108.5 43.5t-42.5 112.5q0 71 44 119.5t105 48.5zM1710 299
q68 0 106.5 -40t38.5 -112q0 -76 -39.5 -124t-103.5 -48q-66 0 -108.5 43.5t-42.5 112.5q0 71 44 119.5t105 48.5z" />
    <glyph glyph-name="dagger" unicode="&#x2020;" horiz-adv-x="1165" 
d="M606 950q53 0 153.5 39t151.5 39q59 0 97.5 -30t38.5 -78q0 -50 -37 -83q-36 -30 -99 -30q-50 0 -147 37t-158 45v-31q0 -101 40 -230t40 -159l-9 -59q-34 -179 -51.5 -353t-17.5 -364h-63q0 191 -17.5 364t-53.5 351l-9 53q0 40 41 171.5t41 227.5v29q-59 -6 -158.5 -44
t-148.5 -38q-60 0 -97 30t-37 83q0 48 36.5 78t97.5 30q50 0 151 -39t156 -39v19q0 84 -44 201q-22 61 -33 102t-11 67q0 69 32 110.5t84 41.5q53 0 86 -42t33 -110q0 -51 -44 -168.5t-44 -197.5v-23z" />
    <glyph glyph-name="daggerdbl" unicode="&#x2021;" horiz-adv-x="1165" 
d="M606 950q53 0 153.5 39t151.5 39q59 0 97.5 -30t38.5 -78q0 -50 -37 -83q-36 -30 -99 -30q-50 0 -147 37t-158 45v-4q0 -62 39 -159t39 -134q0 -34 -38.5 -130.5t-38.5 -166.5q60 6 158.5 44t145.5 38q62 0 99 -31t37 -82q0 -48 -37 -79q-37 -29 -99 -29q-47 0 -149 39.5
t-156 39.5v-22q0 -81 44 -200.5t44 -168.5q0 -67 -32.5 -109t-86.5 -42q-51 0 -83.5 41.5t-32.5 109.5q0 50 44 171.5t44 201.5v18q-58 0 -157 -39.5t-148 -39.5q-63 0 -99.5 30t-36.5 78q0 50 36 82q18 15 42 23t56 8q24 0 61 -9.5t87 -28t87.5 -29t70.5 -15.5
q0 66 -39.5 166.5t-39.5 130.5q0 36 40 135t40 162q-59 -6 -158.5 -44t-148.5 -38q-60 0 -97 30t-37 83q0 48 36.5 78t97.5 30q50 0 151 -39t156 -39v19q0 84 -44 201q-22 61 -33 102t-11 67q0 69 32 110.5t84 41.5q53 0 86 -42t33 -110q0 -51 -44 -168.5t-44 -197.5v-23z
" />
    <glyph glyph-name="circumflex" unicode="&#x2c6;" horiz-adv-x="1024" 
d="M418 1532h188l266 -422h-100l-260 211l-260 -211h-100z" />
    <glyph glyph-name="perthousand" unicode="&#x2030;" horiz-adv-x="2804" 
d="M2548 522q0 86 -39.5 135.5t-108.5 49.5q-42 0 -84.5 -21.5t-74.5 -62.5q-57 -71 -90 -167.5t-33 -191.5q0 -86 40.5 -136t110.5 -50q112 0 195.5 131.5t83.5 312.5zM1640 520q0 88 -38.5 137.5t-108.5 49.5q-42 0 -85 -22t-75 -62q-57 -70 -90 -167t-33 -192
q0 -86 41 -136t111 -50q110 0 194 129.5t84 312.5zM2388 791q141 0 223 -81t82 -225q0 -80 -26 -160t-76 -149q-78 -103 -169.5 -153t-205.5 -50q-135 0 -218 84.5t-83 221.5q0 103 48 207t134 184q63 59 138 90q37 15 75 23t78 8zM1481 791q141 0 223 -82t82 -224
q0 -80 -26.5 -160.5t-76.5 -148.5q-78 -103 -169.5 -153t-204.5 -50q-134 0 -217.5 84.5t-83.5 221.5q0 103 48 207t134 184q63 59 138 90q37 15 75 23t78 8zM739 1163q0 88 -39.5 137.5t-109.5 49.5q-41 0 -83 -22.5t-75 -63.5q-57 -69 -90 -164.5t-33 -192.5
q0 -84 39.5 -135t108.5 -51q112 0 197 131t85 311zM1364 1432l84 -48l-911 -1411l-86 45zM580 1434q141 0 223 -82t82 -226q0 -80 -27 -160t-76 -147q-74 -101 -166 -153t-202 -52q-138 0 -223 84t-85 224q0 102 48 205t135 184q61 58 137 90.5t154 32.5z" />
    <glyph glyph-name="Scaron" unicode="&#x160;" horiz-adv-x="1257" 
d="M1014 1454q0 -8 -1 -29t-1 -34v-107v-113v-35.5t2 -37.5h-45q-48 145 -129.5 218t-192.5 73q-96 0 -158.5 -50.5t-62.5 -128.5q0 -118 230 -240l39 -19.5t42 -24.5l25 -14q178 -99 254 -179q53 -56 82.5 -133t29.5 -164q0 -206 -141.5 -335.5t-370.5 -129.5
q-95 0 -241.5 42t-204.5 42h-20l-3 232l-1 229h57q51 -196 156.5 -300.5t250.5 -104.5q108 0 181 61.5t73 153.5q0 67 -37 120t-120 101q-46 26 -93.5 51t-72.5 38q-100 52 -133 75q-153 101 -211 188t-58 201q0 167 129 279t322 112q64 0 173 -23q54 -10 98 -16t69 -6h17
h13q10 2 14 2zM269 2026h100l260 -213l260 213h100l-266 -422h-188z" />
    <glyph glyph-name="guilsinglleft" unicode="&#x2039;" horiz-adv-x="748" 
d="M487 868h140q-48 -92 -117 -191q-64 -90 -156 -196q87 -87 159 -185t126 -208h-170q-26 41 -61.5 85t-84.5 95q-97 101 -229 213q91 77 197 180q91 91 196 207z" />
    <glyph glyph-name="OE" unicode="&#x152;" horiz-adv-x="2181" 
d="M1071 1184q0 104 -41.5 147t-138.5 43q-202 0 -325.5 -167t-123.5 -445t135 -456.5t341 -178.5q94 0 123.5 20.5t29.5 85.5v951zM1227 1458q10 0 32.5 -1t35.5 -1h96l294 3l310 9l7 -155l11 -180h-53q-39 122 -129 178q-45 27 -108 41t-146 14q-108 0 -132 -18t-24 -82
v-447h131q124 0 181 43.5t71 145.5h54l-1 -13l-4 -227l4 -227l1 -13h-54q-12 101 -70.5 145t-181.5 44h-131v-520q0 -64 16 -76q18 -10 93 -10q230 0 344 57t174 199h61l-23 -98l-67 -275l-201 7q-104 0 -218 1t-220 2l-144 -1l-86 -1q-35 0 -73 -4q-7 -1 -102.5 -13
t-120.5 -12q-370 0 -567 188.5t-197 543.5q0 357 204 571.5t544 214.5q21 0 150 -15q80 -9 132 -13.5t107 -4.5z" />
    <glyph glyph-name="quoteleft" unicode="&#x2018;" horiz-adv-x="594" 
d="M489 1491v-53q-109 -32 -173.5 -104.5t-79.5 -182.5q19 18 42.5 28.5t47.5 10.5q48 0 77 -35t29 -94q0 -72 -48.5 -123t-119.5 -51q-74 0 -118 59t-44 160q0 144 104.5 248.5t282.5 136.5z" />
    <glyph glyph-name="quoteright" unicode="&#x2019;" horiz-adv-x="594" 
d="M92 887v53q110 31 175.5 103.5t80.5 183.5q-22 -20 -44.5 -29.5t-47.5 -9.5q-47 0 -75.5 35.5t-28.5 93.5q0 72 48 123t117 51q72 0 117 -60t45 -159q0 -144 -105.5 -249.5t-281.5 -135.5z" />
    <glyph glyph-name="quotedblleft" unicode="&#x201c;" horiz-adv-x="1075" 
d="M989 1491v-53q-112 -33 -176.5 -105.5t-79.5 -181.5q20 17 44 29q25 10 48 10q48 0 76.5 -35t28.5 -94q0 -72 -48.5 -123t-117.5 -51q-72 0 -118 59.5t-46 153.5q0 146 104.5 253t284.5 138zM508 1491v-53q-112 -33 -176.5 -105.5t-79.5 -181.5q20 17 44 29q25 10 48 10
q48 0 76.5 -35t28.5 -94q0 -72 -48.5 -123t-117.5 -51q-72 0 -118 59t-46 154q0 146 104.5 253t284.5 138z" />
    <glyph glyph-name="quotedblright" unicode="&#x201d;" horiz-adv-x="1075" 
d="M547 887v53q113 33 177 105t79 182q-22 -20 -44.5 -29.5t-47.5 -9.5q-48 0 -76.5 35.5t-28.5 93.5q0 72 48 123t118 51q73 0 117.5 -59.5t44.5 -159.5q0 -144 -105.5 -249.5t-281.5 -135.5zM66 887v53q111 32 176 104.5t80 182.5q-22 -20 -44.5 -29.5t-48.5 -9.5
q-47 0 -75.5 35.5t-28.5 93.5q0 72 48 123t118 51q73 0 117.5 -59.5t44.5 -159.5q0 -144 -105.5 -249.5t-281.5 -135.5z" />
    <glyph glyph-name="bullet" unicode="&#x2022;" horiz-adv-x="1208" 
d="M307 762q0 122 87.5 208.5t209.5 86.5q121 0 208 -86.5t87 -208.5t-87.5 -209.5t-209.5 -87.5t-208.5 87.5t-86.5 209.5z" />
    <glyph glyph-name="endash" unicode="&#x2013;" horiz-adv-x="1165" 
d="M0 582h1167v-183h-1167v183z" />
    <glyph glyph-name="emdash" unicode="&#x2014;" horiz-adv-x="2333" 
d="M0 582h2333v-183h-2333v183z" />
    <glyph glyph-name="tilde" unicode="&#x2dc;" horiz-adv-x="1024" 
d="M782 1495h88q-24 -141 -89.5 -218t-162.5 -77l-32 2l-41 8l-127 33l-38 9l-26 3q-43 0 -71 -27t-43 -83h-86q24 147 87 222t165 75l41 -3l47 -9l132 -35l26 -5l24 -1q41 0 66 25t40 81z" />
    <glyph glyph-name="trademark" unicode="&#x2122;" horiz-adv-x="1683" 
d="M758 1454h211l131 -369l129 369h198v-27l-27 -4q-17 -3 -28 -15q-8 -13 -8 -36v-379q0 -24 9 -36t28 -15l26 -4v-33h-253v33l30 4q18 3 27.5 16t9.5 35v365l-156 -455h-36l-166 463v-373q0 -20 9 -35q9 -12 28 -16l34 -4v-33h-196v33l34 4q18 3 27.5 15.5t9.5 35.5v373
q0 21 -9 35q-9 11 -27 16l-35 4v33zM238 1454h450l12 -192h-32q-8 78 -39 114.5t-92 36.5h-7v-420q0 -22 9 -35t26 -16l31 -4v-33h-266v33l30 4q16 3 25.5 15.5t9.5 35.5v420h-10q-57 0 -89 -36q-29 -35 -38 -115h-33z" />
    <glyph glyph-name="scaron" unicode="&#x161;" horiz-adv-x="893" 
d="M725 954l3 -104l7 -131h-47q-24 93 -84 144.5t-139 51.5q-56 0 -90.5 -31.5t-34.5 -82.5q0 -74 139 -146l80 -43q126 -70 174.5 -143.5t48.5 -177.5q0 -139 -90.5 -228.5t-230.5 -89.5q-31 0 -73.5 7t-92.5 22q-102 29 -143 29l-12 -1l-11 -1l4 134l2 128v53h51
q21 -123 96.5 -197.5t176.5 -74.5q62 0 97.5 31.5t35.5 86.5q0 63 -140 142l-18 10q-192 105 -249.5 177.5t-57.5 174.5q0 126 85.5 207.5t219.5 81.5q46 0 125 -17.5t107 -17.5l37 1q16 2 24 5zM86 1532h100l260 -213l260 213h100l-266 -422h-188z" />
    <glyph glyph-name="guilsinglright" unicode="&#x203a;" horiz-adv-x="748" 
d="M111 868h170q48 -78 143 -178t231 -217q-97 -81 -196 -178t-197 -207h-139q51 96 117 192q35 50 72 96.5t83 96.5q-92 94 -162 190t-122 205z" />
    <glyph glyph-name="oe" unicode="&#x153;" horiz-adv-x="1632" 
d="M1282 655v9q0 108 -38.5 169.5t-106.5 61.5q-76 0 -122 -61q-22 -30 -33 -70.5t-11 -95.5v-13h311zM866 850q65 65 140.5 99t164.5 34q167 0 272 -105t105 -274v-22h-577v-13q0 -169 77.5 -261.5t217.5 -92.5q85 0 153 34.5t117 102.5l47 -33q-63 -169 -169 -258.5
t-243 -89.5q-88 0 -164 39t-137 115q-63 -78 -145 -116t-184 -38q-210 0 -338.5 141.5t-128.5 372.5q0 224 131 361t344 137q90 0 167.5 -32t149.5 -101zM506 870q-84 0 -129 -77.5t-45 -223.5q0 -196 69.5 -324t173.5 -128q83 0 129 72t46 208q0 211 -68.5 342t-175.5 131z
" />
    <glyph glyph-name="Ydieresis" unicode="&#x178;" horiz-adv-x="1331" 
d="M-53 1468l114 -8l164 -2q48 0 121 1t98 1q48 0 72.5 1.5t77.5 6.5v-63q-64 -8 -92.5 -25t-28.5 -47q0 -20 32 -77l7 -13l256 -455l272 443q28 48 36.5 68t8.5 34q0 31 -26.5 48t-89.5 24v63l88 -8l114 -2q23 0 61.5 1t53.5 1q26 0 39.5 1.5t50.5 6.5v-63
q-42 -4 -83.5 -44.5t-123.5 -166.5l-346 -530v-455q0 -95 28 -120q16 -13 48.5 -21.5t79.5 -8.5v-65l-160 9l-176 3l-145 -3l-168 -9v65q49 0 83 7.5t51 20.5q30 24 30 122v448l-316 535q-70 120 -122 164q-27 25 -53 37t-56 12v63zM881 1962q60 0 103.5 -43t43.5 -104
q0 -64 -41.5 -107t-105.5 -43q-63 0 -106 44t-43 106q0 59 45 103t104 44zM455 1962q60 0 104 -42.5t44 -104.5q0 -64 -42 -107t-106 -43q-63 0 -107 43.5t-44 106.5q0 57 45 102t106 45z" />
    <glyph glyph-name="nonbreakingspace" unicode="&#xa0;" horiz-adv-x="1188" 
 />
    <glyph glyph-name="exclamdown" unicode="&#xa1;" horiz-adv-x="637" 
d="M285 999h49q12 -92 30 -215q15 -104 40 -266q45 -290 45 -348q0 -94 -36.5 -145.5t-103.5 -51.5q-65 0 -102 51t-37 148q0 66 44 345q19 119 40 263q15 104 31 219zM305 1487q65 0 109 -45q21 -22 32 -49.5t11 -63.5q0 -71 -44.5 -118.5t-111.5 -47.5q-60 0 -101 42
q-38 43 -38 110q0 77 39 124.5t104 47.5z" />
    <glyph glyph-name="cent" unicode="&#xa2;" horiz-adv-x="1188" 
d="M698 860q-16 40 -41 59t-59 19q-86 0 -149.5 -105.5t-63.5 -261.5q0 -79 18 -147t56 -121zM817 1145l78 -33l-57 -137q68 -33 106.5 -91.5t38.5 -133.5q0 -68 -29 -92.5t-106 -24.5q-57 0 -86 22q-27 23 -33 74l-207 -483q34 -20 68 -30q36 -9 76 -9q92 0 167.5 41.5
t135.5 130.5l49 -31q-66 -175 -171.5 -261.5t-254.5 -86.5q-41 0 -78.5 7.5t-75.5 23.5l-78 -176l-77 30l77 187q-92 60 -141 162t-49 239q0 241 135 388t359 147h20.5t24.5 -2h28q15 -3 21 -4z" />
    <glyph glyph-name="sterling" unicode="&#xa3;" horiz-adv-x="1188" 
d="M469 188q-43 29 -76.5 42.5t-60.5 13.5q-41 0 -71 -30q-14 -15 -21 -31.5t-7 -39.5q0 -39 25 -64.5t64 -25.5q45 0 82 34t65 101zM651 723h256v-80h-235l12 -68l4 -61q0 -34 -4 -68.5t-13 -69.5q-16 -66 -48 -128q83 -33 145 -50.5t102 -17.5q66 0 119 30.5t109 104.5h51
q-48 -179 -124 -261.5t-189 -82.5q-37 0 -69.5 8t-69.5 27q-69 36 -140 107q-43 -68 -98 -102t-125 -34q-79 0 -126.5 48t-47.5 125q0 84 53 137q28 27 61 40t78 13q32 0 65 -9t72 -28l5 32l2 25q0 25 -6 55t-20 66q-24 71 -75 162h-202v80h161q-44 109 -66 196t-22 158
q0 171 102 264t291 93q178 0 269.5 -72.5t91.5 -212.5q0 -51 -26.5 -71.5t-96.5 -20.5q-73 0 -100 24q-25 25 -25 111q0 101 -21 133.5t-75 32.5q-68 0 -112 -54.5t-44 -140.5q0 -84 95 -339z" />
    <glyph glyph-name="currency" unicode="&#xa4;" horiz-adv-x="1241" 
d="M623 1161q-113 0 -195 -82t-82 -194q0 -114 81 -195q41 -40 89 -60t107 -20q113 0 194.5 81t81.5 194q0 111 -82 193.5t-194 82.5zM172 1438l205 -203q53 38 114 58q30 10 61.5 15t68.5 5q39 0 67 -4t64 -16q61 -18 116 -58l203 203l105 -107l-203 -205q38 -52 57 -114.5
t19 -126.5q0 -67 -18.5 -126.5t-57.5 -115.5l203 -205l-105 -104l-203 203q-52 -37 -115 -59q-63 -19 -130 -19q-73 0 -133 18.5t-113 59.5l-205 -203l-104 104l202 205q-38 55 -56.5 114t-18.5 128q0 65 18 126t57 115l-202 205z" />
    <glyph glyph-name="yen" unicode="&#xa5;" horiz-adv-x="1188" 
d="M-6 1407l102 -8l135 -2q21 0 64.5 1t66.5 1l143 8l1 -61q-54 -9 -78.5 -24.5t-24.5 -43.5q0 -15 8.5 -36.5t11.5 -27.5q9 -16 13 -24l234 -461l260 451q22 40 30.5 61t8.5 35q0 30 -21 45.5t-78 24.5l1 61l87 -8l82 -2q10 0 34 1t38 1l88 8v-61q-37 -6 -74 -46t-102 -157
l-127 -223h252v-84h-297l-98 -170h395v-84h-416v-383q0 -89 26 -116q13 -12 39.5 -20t63.5 -8v-61l-120 7l-160 3l-137 -3q-27 0 -57.5 -1.5t-69.5 -5.5v61q43 0 68.5 6t41.5 18q27 21 27 120v383h-412v84h395l-90 170h-305v84h258l-113 221l-48 84q-22 38 -40 59
q-21 27 -46 41.5t-60 20.5v61z" />
    <glyph glyph-name="brokenbar" unicode="&#xa6;" horiz-adv-x="1024" 
d="M410 408h206v-758h-206v758zM410 1432h206v-758h-206v758z" />
    <glyph glyph-name="section" unicode="&#xa7;" horiz-adv-x="1188" 
d="M713 334q129 -77 190.5 -158.5t61.5 -173.5q0 -137 -99 -219t-270 -82q-175 0 -270 67t-95 191q0 59 25.5 83t89.5 24q70 0 93 -20q13 -9 20.5 -34t7.5 -62q0 -101 35.5 -140t120.5 -39q73 0 118 41q47 39 47 102q0 49 -34 94t-127 111l-143 96q-133 89 -173 121
q-96 81 -133 146t-37 143q0 126 89 205q45 39 103 59t132 20h6q-121 65 -180.5 141t-59.5 167q0 122 95 196t258 74q168 0 260 -64t92 -184q0 -52 -25 -74q-25 -20 -92 -20q-68 0 -94 22q-12 12 -20.5 38.5t-8.5 64.5q0 95 -31 124q-26 27 -94 27q-74 0 -117.5 -35.5
t-43.5 -97.5q0 -86 285 -265l120 -75q127 -80 178 -155t51 -170q0 -125 -87 -203q-47 -40 -107 -63t-137 -23zM512 864h-10q-87 0 -141 -41.5t-54 -107.5q0 -84 162 -200l37 -26l164 -116q101 9 151.5 47.5t50.5 105.5q0 58 -46.5 112t-182.5 142z" />
    <glyph glyph-name="dieresis" unicode="&#xa8;" horiz-adv-x="1024" 
d="M727 1468q60 0 103.5 -43t43.5 -104q0 -64 -41.5 -107t-105.5 -43q-63 0 -106 44t-43 106q0 59 45 103t104 44zM301 1468q60 0 104 -42.5t44 -104.5q0 -64 -42 -107t-106 -43q-63 0 -107 43.5t-44 106.5q0 57 45 102t106 45z" />
    <glyph glyph-name="copyright" unicode="&#xa9;" horiz-adv-x="1683" 
d="M1126 1102h45v-326h-47q-30 131 -99.5 202t-164.5 71q-116 0 -174.5 -90.5t-58.5 -274.5q0 -185 62.5 -281t182.5 -96q81 0 148.5 43.5t124.5 130.5l45 -28q-62 -105 -150 -160t-198 -55q-186 0 -309 122.5t-123 303.5q0 191 120.5 316.5t305.5 125.5q78 0 152.5 -33
t80.5 -33q23 0 36 14.5t21 47.5zM844 1309q-125 0 -240 -48t-204 -138t-136 -206t-47 -239q0 -128 46 -241.5t135.5 -202.5t202.5 -137q55 -22 115.5 -34t125.5 -12q128 0 239.5 46.5t200 136t136.5 204.5t48 240t-47.5 243.5t-134.5 204t-204 134.5t-236 49zM844 1413
q142 0 275 -55.5t237 -158.5t161.5 -241.5t57.5 -279.5t-56.5 -276.5t-159.5 -240.5t-235.5 -159.5t-281.5 -54.5q-147 0 -278 54t-236.5 158t-161 238t-55.5 281q0 146 54 280.5t157.5 237.5t239.5 160t282 57z" />
    <glyph glyph-name="ordfeminine" unicode="&#xaa;" horiz-adv-x="795" 
d="M475 1165q-41 0 -76 -12.5t-62 -33.5q-50 -38 -50 -99q0 -47 26 -73.5t72 -26.5q28 0 51.5 9t38.5 29v207zM676 1243v-303q0 -26 5 -36t17 -11l23 3l18 9v-43q-36 -39 -76 -60.5t-83 -21.5q-50 0 -77 31q-12 15 -20 39t-8 55q-67 -64 -125.5 -95.5t-111.5 -31.5
q-75 0 -123.5 50.5t-48.5 127.5q0 110 103 176t306 87v120q0 42 -23 65t-65 23q-44 0 -64 -21q-9 -10 -15.5 -31.5t-6.5 -47.5q0 -60 -25 -77q-23 -13 -88 -13q-46 0 -64 14.5t-18 53.5q0 89 76 135.5t228 46.5q139 0 202.5 -57.5t63.5 -186.5z" />
    <glyph glyph-name="guillemotleft" unicode="&#xab;" horiz-adv-x="1214" 
d="M954 868h140q-25 -48 -54.5 -96t-64.5 -96q-66 -94 -156 -195q46 -45 85 -90t77 -97q70 -95 125 -206h-170q-26 41 -61.5 85t-84.5 95q-97 101 -229 213q91 77 197 180q91 91 196 207zM485 868h140q-25 -48 -54.5 -96t-64.5 -96q-66 -94 -156 -195q92 -91 163 -187.5
t124 -205.5h-170q-26 41 -61.5 85t-84.5 95q-97 101 -229 213q91 77 197 180q91 91 196 207z" />
    <glyph glyph-name="logicalnot" unicode="&#xac;" horiz-adv-x="1706" 
d="M254 864h1198v-502h-199v306h-999v196z" />
    <glyph glyph-name="minus" unicode="&#xad;" horiz-adv-x="674" 
d="M61 614h553v-245h-553v245z" />
    <glyph glyph-name="registered" unicode="&#xae;" horiz-adv-x="1683" 
d="M760 723l16 -2h27q96 0 144 45t48 135q0 60 -43 103t-106 43q-44 0 -65 -17q-21 -15 -21 -49v-258zM465 1098h403q147 0 234.5 -55.5t87.5 -143.5q0 -86 -63 -134t-216 -75q94 -21 148.5 -68.5t70.5 -125.5q5 -21 10 -74q0 -84 46 -84q27 0 42 29.5t15 87.5v12h51v-23
q0 -87 -44 -133.5t-128 -46.5q-25 0 -44 3t-39 11q-34 13 -56 41q-15 21 -24 55t-9 79q0 20 -2 38t-4 29q-13 77 -54 116q-19 18 -47 28t-65 10h-18v-246q0 -45 20 -65q20 -18 78 -27v-51h-393v50q30 0 49.5 6t33.5 18q23 20 23 69v522q0 49 -23 69q-20 20 -83 26v53z
M844 1309q-126 0 -240 -48t-203.5 -138t-136.5 -206t-47 -239q0 -128 46 -241.5t135.5 -202.5t202.5 -137q55 -22 115.5 -34t125.5 -12q128 0 239.5 46.5t200 136t136.5 204.5t48 240q0 126 -48 242t-135.5 203.5t-203.5 136.5t-235 49zM844 1413q143 0 281.5 -59
t244.5 -166q98 -100 150.5 -236.5t52.5 -285.5q0 -69 -15 -137.5t-46 -139.5q-60 -137 -171 -244q-99 -96 -227.5 -147t-271.5 -51q-110 0 -211 30.5t-191 90.5q-157 104 -243 263.5t-86 346.5q0 146 54.5 280t157 237.5t238 160.5t283.5 57z" />
    <glyph glyph-name="macron" unicode="&#xaf;" horiz-adv-x="1024" 
d="M184 1409h656v-178h-656v178z" />
    <glyph glyph-name="degree" unicode="&#xb0;" horiz-adv-x="674" 
d="M338 1335q-71 0 -123.5 -51t-52.5 -123t51 -124t125 -52q72 0 123 51.5t51 124.5q0 72 -51 123t-123 51zM338 1464q125 0 214 -89.5t89 -215.5q0 -125 -89 -214t-216 -89q-126 0 -213.5 87.5t-87.5 215.5q0 127 88.5 216t214.5 89z" />
    <glyph glyph-name="plusminus" unicode="&#xb1;" horiz-adv-x="1706" 
d="M254 197h1198v-199h-1198v199zM752 1223h202v-326h498v-199h-498v-325h-202v325h-498v199h498v326z" />
    <glyph glyph-name="twosuperior" unicode="&#xb2;" horiz-adv-x="784" 
d="M229 727h301q68 0 97.5 6t46.5 23h24l-28 -77l-45 -121l-176 2l-111 1l-289 -4h-6v55l35 33q391 367 391 494q0 79 -41.5 123.5t-118.5 44.5q-69 0 -115.5 -33.5t-72.5 -104.5h-41q16 114 101 182t206 68q128 0 209.5 -68t81.5 -173q0 -103 -90.5 -197t-358.5 -254z" />
    <glyph glyph-name="threesuperior" unicode="&#xb3;" horiz-adv-x="784" 
d="M162 1407l107 -4l139 -2q19 0 81 2t87 2h35h23q14 2 19 2l-268 -326h18q122 0 192.5 -63.5t70.5 -173.5q0 -128 -96.5 -213.5t-239.5 -85.5q-75 0 -142.5 24.5t-132.5 79.5l31 29q35 -26 81 -43q45 -14 91 -14q89 0 146 53.5t57 138.5q0 82 -57 132q-28 25 -68.5 40.5
t-89.5 15.5l215 252h-185q-51 0 -78 -5t-48 -19h-33l21 83z" />
    <glyph glyph-name="acute" unicode="&#xb4;" horiz-adv-x="1024" 
d="M774 1317l-397 -207h-107l334 346q57 60 92 79t72 19q48 0 80.5 -32t32.5 -80q0 -37 -24 -67q-24 -27 -83 -58z" />
    <glyph glyph-name="mu" unicode="&#xb5;" horiz-adv-x="1202" 
d="M178 209l-29 -252q-39 -381 -155 -381q-54 0 -84.5 31t-30.5 84q0 49 68 274q32 108 59 212t47 196l109 512h256l-99 -459l-17 -89l-5 -58q0 -57 30 -91t85 -34q70 0 115 52t69 167l109 512h256l-115 -533l-13 -67l-4 -43q0 -47 17.5 -67.5t56.5 -20.5t65.5 18t45.5 59
l21 50q27 69 55 69q14 0 23 -9.5t9 -29.5q0 -35 -15.5 -88t-43.5 -102q-40 -72 -98 -109t-138 -37q-83 0 -128.5 48t-55.5 151q-39 -105 -98 -152t-150 -47q-93 0 -149 60.5t-68 173.5z" />
    <glyph glyph-name="paragraph" unicode="&#xb6;" horiz-adv-x="1024" 
d="M983 1479v-111h-113v-1368h-151v1368h-158v-1368h-153v784q-83 0 -149 25.5t-118 75.5q-100 95 -100 245q0 158 107 253.5t284 95.5h551z" />
    <glyph glyph-name="periodcentered" unicode="&#x2219;" horiz-adv-x="594" 
d="M297 866q63 0 106 -44.5t43 -106.5q0 -63 -43.5 -106.5t-105.5 -43.5q-61 0 -105.5 44t-44.5 106t44.5 106.5t105.5 44.5z" />
    <glyph glyph-name="cedilla" unicode="&#xb8;" horiz-adv-x="1024" 
d="M467 0h88v-131l36 6l40 2q97 0 154 -53t57 -143q0 -100 -70 -156.5t-194 -56.5q-68 0 -156.5 24t-204.5 76l51 113q84 -46 153 -69.5t122 -23.5q43 0 72.5 26.5t29.5 68.5q0 46 -26 69t-78 23h-18t-20 -2l-36 -6v233z" />
    <glyph glyph-name="onesuperior" unicode="&#xb9;" horiz-adv-x="784" 
d="M465 1419h22v-733q0 -55 14.5 -71.5t61.5 -24.5v-33l-85 4l-87 2q-14 0 -42 -1t-43 -1h-52q-23 -3 -34 -4v33q44 6 60.5 24.5t16.5 71.5v508q0 42 -5 50.5t-20 8.5l-25 -4q-14 -3 -44 -16l-17 31q70 33 130 68z" />
    <glyph glyph-name="ordmasculine" unicode="&#xba;" horiz-adv-x="834" 
d="M393 1407q-66 0 -106.5 -55.5t-40.5 -147.5q0 -136 63 -229.5t146 -93.5q64 0 100.5 51.5t36.5 146.5q0 143 -57 235.5t-142 92.5zM45 1120q0 156 108.5 260.5t272.5 104.5q159 0 262 -100t103 -255t-106 -254.5t-275 -99.5q-164 0 -264.5 95t-100.5 249z" />
    <glyph glyph-name="guillemotright" unicode="&#xbb;" horiz-adv-x="1214" 
d="M569 868h168q47 -77 145 -179.5t232 -215.5q-96 -79 -196 -177q-48 -47 -97 -99q-45 -47 -100 -109h-139q50 96 117 192q35 50 72 96.5t83 96.5q-92 92 -164 191q-67 95 -121 204zM100 868h168q47 -77 145 -179.5t232 -215.5q-96 -79 -196 -177q-48 -47 -97 -99
q-45 -47 -100 -109h-139q50 96 117 192q35 50 72 96.5t83 96.5q-92 92 -164 191q-67 95 -121 204z" />
    <glyph glyph-name="onequarter" unicode="&#xbc;" horiz-adv-x="1886" 
d="M1518 625l-230 -293h230v293zM1595 801h91v-469h133v-121h-133v-225h-168v225h-310v121l197 241zM1460 1430l66 -50l-1102 -1407l-66 50zM444 1419h21v-684q0 -51 13.5 -66.5t57.5 -23.5l1 -30l-84 4l-80 2q-13 0 -40 -1t-42 -1l-82 -4v30q43 6 58.5 23t15.5 67v473
q0 40 -5 48t-20 8q-13 0 -27 -4.5t-19.5 -6.5t-18.5 -8l-17 29l123 63z" />
    <glyph glyph-name="onehalf" unicode="&#xbd;" horiz-adv-x="1886" 
d="M1354 156h291q68 0 94 6t41 20h24l-20 -53l-52 -133l-163 3l-109 1l-276 -4h-6v51l43 40q364 334 364 452q0 75 -40 115t-113 40q-67 0 -111 -31t-68 -96h-41q15 104 96.5 169t198.5 65q120 0 198.5 -63.5t78.5 -162.5q0 -94 -86.5 -181.5t-343.5 -237.5zM1460 1430
l66 -50l-1102 -1407l-66 50zM444 1419h21v-684q0 -51 13.5 -66.5t57.5 -23.5l1 -30l-84 4l-80 2q-13 0 -40 -1t-42 -1l-82 -4v30q43 6 58.5 23t15.5 67v473q0 40 -5 48t-20 8q-13 0 -27 -4.5t-19.5 -6.5t-18.5 -8l-17 29l123 63z" />
    <glyph glyph-name="threequarters" unicode="&#xbe;" horiz-adv-x="1886" 
d="M1518 625l-230 -293h230v293zM1595 801h91v-469h133v-121h-133v-225h-168v225h-310v121l197 241zM1460 1430l66 -50l-1102 -1407l-66 50zM154 1407h6l229 -4h91l144 4l-255 -303h16q116 0 184 -59.5t68 -161.5q0 -121 -92 -201t-230 -80q-68 0 -134 24q-32 12 -63 30
t-65 44l29 27q34 -25 77 -40q10 -3 35.5 -8t51.5 -5q86 0 140 50t54 130q0 79 -53 123q-29 25 -65.5 38t-85.5 13l204 238h-176q-43 0 -72.5 -5.5t-50.5 -17.5h-28l23 96z" />
    <glyph glyph-name="questiondown" unicode="&#xbf;" horiz-adv-x="1161" 
d="M580 1001h43l1 -23l1 -24q0 -35 -4 -67t-13 -62q-15 -59 -55 -127q-19 -33 -66 -96q-122 -167 -122 -283q0 -118 66 -200t163 -82q58 0 87.5 31.5t29.5 95.5l-1 32l-1 64q0 64 30.5 91.5t106.5 27.5q66 0 95 -26q30 -24 30 -81q0 -146 -102 -222.5t-298 -76.5
q-216 0 -333 87.5t-117 250.5q0 71 27 139.5t79 124.5q56 61 180 157l74 59q46 38 71 92q14 29 21 57t7 61zM602 1489q65 0 109 -45q21 -22 32 -49.5t11 -63.5q0 -69 -45 -117.5t-111 -48.5q-63 0 -102 42t-39 110q0 77 40.5 124.5t104.5 47.5z" />
    <glyph glyph-name="Agrave" unicode="&#xc0;" horiz-adv-x="1409" 
d="M594 1057l-195 -518h387zM655 1491h95l538 -1321q21 -47 52 -74q29 -23 85 -37v-65q-51 5 -82 7t-56 2l-171 3l-126 -3q-26 0 -50 -2q-84 -7 -102 -7v65q53 9 73.5 23.5t20.5 40.5q0 13 -5 28q-3 18 -12 39l-84 236h-481l-86 -236l-15 -43l-3 -28q0 -29 17 -41.5
t69 -18.5v-65l-99 6l-81 2q-12 0 -40 -1t-45 -1l-90 -6v65q56 9 90 36t58 87zM613 1950l334 -346h-107l-395 207q-33 16 -52.5 29.5t-32.5 29.5q-24 27 -24 66q0 47 32.5 79.5t80.5 32.5q39 0 72 -20q32 -17 92 -78z" />
    <glyph glyph-name="Aacute" unicode="&#xc1;" horiz-adv-x="1409" 
d="M594 1057l-195 -518h387zM655 1491h95l538 -1321q21 -47 52 -74q29 -23 85 -37v-65q-51 5 -82 7t-56 2l-171 3l-126 -3q-26 0 -50 -2q-84 -7 -102 -7v65q53 9 73.5 23.5t20.5 40.5q0 13 -5 28q-3 18 -12 39l-84 236h-481l-86 -236l-15 -43l-3 -28q0 -29 17 -41.5
t69 -18.5v-65l-99 6l-81 2q-12 0 -40 -1t-45 -1l-90 -6v65q56 9 90 36t58 87zM967 1811l-397 -207h-107l334 346q57 60 92 79t72 19q48 0 80.5 -32t32.5 -80q0 -37 -24 -67q-24 -27 -83 -58z" />
    <glyph glyph-name="Acircumflex" unicode="&#xc2;" horiz-adv-x="1409" 
d="M594 1057l-195 -518h387zM655 1491h95l538 -1321q21 -47 52 -74q29 -23 85 -37v-65q-51 5 -82 7t-56 2l-171 3l-126 -3q-26 0 -50 -2q-84 -7 -102 -7v65q53 9 73.5 23.5t20.5 40.5q0 13 -5 28q-3 18 -12 39l-84 236h-481l-86 -236l-15 -43l-3 -28q0 -29 17 -41.5
t69 -18.5v-65l-99 6l-81 2q-12 0 -40 -1t-45 -1l-90 -6v65q56 9 90 36t58 87zM611 2026h188l266 -422h-100l-260 211l-260 -211h-100z" />
    <glyph glyph-name="Atilde" unicode="&#xc3;" horiz-adv-x="1409" 
d="M594 1057l-195 -518h387zM655 1491h95l538 -1321q21 -47 52 -74q29 -23 85 -37v-65q-51 5 -82 7t-56 2l-171 3l-126 -3q-26 0 -50 -2q-84 -7 -102 -7v65q53 9 73.5 23.5t20.5 40.5q0 13 -5 28q-3 18 -12 39l-84 236h-481l-86 -236l-15 -43l-3 -28q0 -29 17 -41.5
t69 -18.5v-65l-99 6l-81 2q-12 0 -40 -1t-45 -1l-90 -6v65q56 9 90 36t58 87zM975 1989h88q-24 -141 -89.5 -218t-162.5 -77l-32 2l-41 8l-127 33l-38 9l-26 3q-43 0 -71 -27t-43 -83h-86q24 147 87 222t165 75l41 -3l47 -9l132 -35l26 -5l24 -1q41 0 66 25t40 81z" />
    <glyph glyph-name="Adieresis" unicode="&#xc4;" horiz-adv-x="1409" 
d="M594 1057l-195 -518h387zM655 1491h95l538 -1321q21 -47 52 -74q29 -23 85 -37v-65q-51 5 -82 7t-56 2l-171 3l-126 -3q-26 0 -50 -2q-84 -7 -102 -7v65q53 9 73.5 23.5t20.5 40.5q0 13 -5 28q-3 18 -12 39l-84 236h-481l-86 -236l-15 -43l-3 -28q0 -29 17 -41.5
t69 -18.5v-65l-99 6l-81 2q-12 0 -40 -1t-45 -1l-90 -6v65q56 9 90 36t58 87zM920 1962q60 0 103.5 -43t43.5 -104q0 -64 -41.5 -107t-105.5 -43q-63 0 -106 44t-43 106q0 59 45 103t104 44zM494 1962q60 0 104 -42.5t44 -104.5q0 -64 -42 -107t-106 -43q-63 0 -107 43.5
t-44 106.5q0 57 45 102t106 45z" />
    <glyph glyph-name="Aring" unicode="&#xc5;" horiz-adv-x="1409" 
d="M594 1057l-195 -518h387zM655 1491h95l538 -1321q21 -47 52 -74q29 -23 85 -37v-65q-51 5 -82 7t-56 2l-171 3l-126 -3q-26 0 -50 -2q-84 -7 -102 -7v65q53 9 73.5 23.5t20.5 40.5q0 13 -5 28q-3 18 -12 39l-84 236h-481l-86 -236l-15 -43l-3 -28q0 -29 17 -41.5
t69 -18.5v-65l-99 6l-81 2q-12 0 -40 -1t-45 -1l-90 -6v65q56 9 90 36t58 87zM715 2005q-60 0 -103 -41.5t-43 -103.5q0 -61 42.5 -104.5t103.5 -43.5q60 0 101.5 42.5t41.5 105.5q0 61 -41 103t-102 42zM713 2152q123 0 209 -84.5t86 -207.5t-85.5 -208t-209.5 -85
q-123 0 -208 84t-85 209q0 122 85 207t208 85z" />
    <glyph glyph-name="AE" unicode="&#xc6;" horiz-adv-x="1905" 
d="M797 1323l-346 -651h346v651zM539 1468l234 -8l319 -2q83 0 208.5 1t167.5 1q56 0 103 2q141 6 145 6l8 -155l11 -180h-56q-39 123 -128.5 178t-252.5 55q-107 0 -132 -18t-25 -82v-447h133q124 0 181 43.5t71 145.5h53v-13l-4 -227l4 -227v-13h-53q-12 101 -70.5 145
t-181.5 44h-133v-520q0 -64 17 -77q19 -11 93 -11q229 0 343 58.5t173 199.5h64l-23 -93l-70 -280l-189 7l-277 3q-119 0 -208.5 -1t-172.5 -2q-59 0 -141.5 -3.5t-93.5 -3.5l-1 65q89 9 115.5 33t26.5 117v358h-406l-172 -342l-27 -62l-10 -40q0 -29 30 -46
q17 -9 37.5 -13.5t49.5 -4.5v-65l-114 7l-111 3l-97 -3q-21 0 -48 -1.5t-64 -5.5v65q72 8 122 51t128 187l522 960l3 6q28 53 28 80q0 36 -21.5 51t-79.5 15h-28v59z" />
    <glyph glyph-name="Ccedilla" unicode="&#xc7;" horiz-adv-x="1452" 
d="M682 -25q-90 9 -164 37q-109 40 -196 123q-111 106 -171.5 254.5t-60.5 321.5q0 156 49.5 295.5t147 252t234 172.5t294.5 60q49 0 98.5 -7t122.5 -25q134 -32 181 -32l27 2l48 6l3 -74q0 -99 4 -180q12 -244 12 -245h-58q-52 218 -155.5 327t-253.5 109
q-180 0 -292 -148t-112 -390q0 -104 18.5 -196t55.5 -169q70 -148 182.5 -228.5t247.5 -80.5q100 0 196 51.5t185 153.5l41 -39q-97 -175 -251 -266q-75 -44 -161.5 -66.5t-183.5 -22.5v-102l36 6l40 2q97 0 154 -53t57 -143q0 -100 -70 -156.5t-194 -56.5q-68 0 -156.5 24
t-204.5 76l51 113q84 -46 153 -69.5t122 -23.5q43 0 72.5 26.5t29.5 68.5q0 46 -26 69t-78 23h-18t-20 -2l-36 -6v208z" />
    <glyph glyph-name="Egrave" unicode="&#xc8;" horiz-adv-x="1356" 
d="M123 1468l155 -3l644 -1l157 1l88 3l8 -156l11 -179h-53q-40 123 -130 178t-253 55q-108 0 -132 -17.5t-24 -82.5v-447h131q123 0 182.5 44.5t71.5 144.5h51l-1 -63l-3 -177l3 -182l1 -58h-51q-12 99 -71.5 144t-182.5 45h-131v-520q0 -64 16 -76q17 -10 90 -10
q231 0 345.5 57t173.5 199h63l-24 -98l-66 -275l-190 7l-277 3q-118 0 -208 -1t-174 -2q-60 0 -142 -3.5t-92 -3.5v65q87 9 113 32.5t26 117.5v1044q0 91 -23.5 115.5t-101.5 36.5v63zM586 1950l334 -346h-107l-395 207q-33 16 -52.5 29.5t-32.5 29.5q-24 27 -24 66
q0 47 32.5 79.5t80.5 32.5q39 0 72 -20q32 -17 92 -78z" />
    <glyph glyph-name="Eacute" unicode="&#xc9;" horiz-adv-x="1356" 
d="M123 1468l155 -3l644 -1l157 1l88 3l8 -156l11 -179h-53q-40 123 -130 178t-253 55q-108 0 -132 -17.5t-24 -82.5v-447h131q123 0 182.5 44.5t71.5 144.5h51l-1 -63l-3 -177l3 -182l1 -58h-51q-12 99 -71.5 144t-182.5 45h-131v-520q0 -64 16 -76q17 -10 90 -10
q231 0 345.5 57t173.5 199h63l-24 -98l-66 -275l-190 7l-277 3q-118 0 -208 -1t-174 -2q-60 0 -142 -3.5t-92 -3.5v65q87 9 113 32.5t26 117.5v1044q0 91 -23.5 115.5t-101.5 36.5v63zM940 1811l-397 -207h-107l334 346q57 60 92 79t72 19q48 0 80.5 -32t32.5 -80
q0 -37 -24 -67q-24 -27 -83 -58z" />
    <glyph glyph-name="Ecircumflex" unicode="&#xca;" horiz-adv-x="1356" 
d="M123 1468l155 -3l644 -1l157 1l88 3l8 -156l11 -179h-53q-40 123 -130 178t-253 55q-108 0 -132 -17.5t-24 -82.5v-447h131q123 0 182.5 44.5t71.5 144.5h51l-1 -63l-3 -177l3 -182l1 -58h-51q-12 99 -71.5 144t-182.5 45h-131v-520q0 -64 16 -76q17 -10 90 -10
q231 0 345.5 57t173.5 199h63l-24 -98l-66 -275l-190 7l-277 3q-118 0 -208 -1t-174 -2q-60 0 -142 -3.5t-92 -3.5v65q87 9 113 32.5t26 117.5v1044q0 91 -23.5 115.5t-101.5 36.5v63zM584 2026h188l266 -422h-100l-260 211l-260 -211h-100z" />
    <glyph glyph-name="Edieresis" unicode="&#xcb;" horiz-adv-x="1356" 
d="M123 1468l155 -3l644 -1l157 1l88 3l8 -156l11 -179h-53q-40 123 -130 178t-253 55q-108 0 -132 -17.5t-24 -82.5v-447h131q123 0 182.5 44.5t71.5 144.5h51l-1 -63l-3 -177l3 -182l1 -58h-51q-12 99 -71.5 144t-182.5 45h-131v-520q0 -64 16 -76q17 -10 90 -10
q231 0 345.5 57t173.5 199h63l-24 -98l-66 -275l-190 7l-277 3q-118 0 -208 -1t-174 -2q-60 0 -142 -3.5t-92 -3.5v65q87 9 113 32.5t26 117.5v1044q0 91 -23.5 115.5t-101.5 36.5v63zM893 1962q60 0 103.5 -43t43.5 -104q0 -64 -41.5 -107t-105.5 -43q-63 0 -106 44
t-43 106q0 59 45 103t104 44zM467 1962q60 0 104 -42.5t44 -104.5q0 -64 -42 -107t-106 -43q-63 0 -107 43.5t-44 106.5q0 57 45 102t106 45z" />
    <glyph glyph-name="Igrave" unicode="&#xcc;" horiz-adv-x="842" 
d="M109 1468l109 -8l159 -2q45 0 116 1t96 1q46 0 69 1.5t77 6.5v-63q-41 0 -69.5 -8.5t-44.5 -23.5q-27 -24 -27 -120v-1044q0 -92 26.5 -116.5t114.5 -33.5v-65q-45 4 -76.5 6.5t-71.5 2.5l-184 3l-135 -3q-28 0 -54 -2q-89 -7 -105 -7v65q87 9 113 32.5t26 117.5v1044
q0 94 -27 120q-26 23 -112 32v63zM330 1950l334 -346h-107l-395 207q-33 16 -52.5 29.5t-32.5 29.5q-24 27 -24 66q0 47 32.5 79.5t80.5 32.5q39 0 72 -20q32 -17 92 -78z" />
    <glyph glyph-name="Iacute" unicode="&#xcd;" horiz-adv-x="842" 
d="M109 1468l109 -8l159 -2q45 0 116 1t96 1q46 0 69 1.5t77 6.5v-63q-41 0 -69.5 -8.5t-44.5 -23.5q-27 -24 -27 -120v-1044q0 -92 26.5 -116.5t114.5 -33.5v-65q-45 4 -76.5 6.5t-71.5 2.5l-184 3l-135 -3q-28 0 -54 -2q-89 -7 -105 -7v65q87 9 113 32.5t26 117.5v1044
q0 94 -27 120q-26 23 -112 32v63zM684 1811l-397 -207h-107l334 346q57 60 92 79t72 19q48 0 80.5 -32t32.5 -80q0 -37 -24 -67q-24 -27 -83 -58z" />
    <glyph glyph-name="Icircumflex" unicode="&#xce;" horiz-adv-x="842" 
d="M109 1468l109 -8l159 -2q45 0 116 1t96 1q46 0 69 1.5t77 6.5v-63q-41 0 -69.5 -8.5t-44.5 -23.5q-27 -24 -27 -120v-1044q0 -92 26.5 -116.5t114.5 -33.5v-65q-45 4 -76.5 6.5t-71.5 2.5l-184 3l-135 -3q-28 0 -54 -2q-89 -7 -105 -7v65q87 9 113 32.5t26 117.5v1044
q0 94 -27 120q-26 23 -112 32v63zM328 2026h188l266 -422h-100l-260 211l-260 -211h-100z" />
    <glyph glyph-name="Idieresis" unicode="&#xcf;" horiz-adv-x="842" 
d="M109 1468l109 -8l159 -2q45 0 116 1t96 1q46 0 69 1.5t77 6.5v-63q-41 0 -69.5 -8.5t-44.5 -23.5q-27 -24 -27 -120v-1044q0 -92 26.5 -116.5t114.5 -33.5v-65q-45 4 -76.5 6.5t-71.5 2.5l-184 3l-135 -3q-28 0 -54 -2q-89 -7 -105 -7v65q87 9 113 32.5t26 117.5v1044
q0 94 -27 120q-26 23 -112 32v63zM637 1962q60 0 103.5 -43t43.5 -104q0 -64 -41.5 -107t-105.5 -43q-63 0 -106 44t-43 106q0 59 45 103t104 44zM211 1962q60 0 104 -42.5t44 -104.5q0 -64 -42 -107t-106 -43q-63 0 -107 43.5t-44 106.5q0 57 45 102t106 45z" />
    <glyph glyph-name="Eth" unicode="&#xd0;" horiz-adv-x="1722" 
d="M1393 1440l1 -213q0 -51 2.5 -131.5t2.5 -97.5l-56 -1q-44 178 -160.5 282.5t-264.5 104.5q-206 0 -334.5 -163t-128.5 -428q0 -73 9 -140t29 -133t47.5 -122.5t65.5 -110.5q56 -82 142 -127t184 -45q77 0 137.5 25.5t89.5 70.5v309q0 88 -21 112t-94 38l1 63l128 -8
l177 -2q34 0 88.5 1t74.5 1q36 0 53.5 1.5t65.5 6.5v-63q-78 -9 -102.5 -34t-24.5 -116v-295q-110 -122 -275.5 -187t-367.5 -65q-167 0 -303.5 48t-243.5 145q-110 100 -169 237q-28 68 -42 142.5t-14 161.5q0 130 33 249t98 211q111 162 281.5 243t400.5 81
q82 0 217.5 -26.5t186.5 -26.5l43 1zM500 1987h92q19 -77 82 -112t188 -35q126 0 187.5 33.5t80.5 113.5h92q-24 -169 -116.5 -257.5t-243.5 -88.5q-154 0 -245 87.5t-117 258.5z" />
    <glyph glyph-name="Ntilde" unicode="&#xd1;" horiz-adv-x="1628" 
d="M70 1468l101 -8l130 -2q24 0 63 1t54 1q27 0 40.5 1.5t50.5 6.5l740 -962v770q0 68 -27 98q-13 14 -37 22.5t-56 8.5v63l75 -8l103 -2q23 0 61 1t52 1q26 0 37.5 1.5t45.5 6.5v-63q-33 0 -57.5 -9t-38.5 -23q-25 -28 -25 -97v-1303h-120l-881 1166v-953q0 -67 24.5 -94
t96.5 -33v-65q-35 5 -51 7t-38 2l-100 3l-85 -3l-101 -9v65q35 0 57 7.5t38 23.5q26 28 26 96v1080l-108 130l-33 7l-37 2v63zM1085 1989h88q-24 -141 -89.5 -218t-162.5 -77l-32 2l-41 8l-127 33l-38 9l-26 3q-43 0 -71 -27t-43 -83h-86q24 147 87 222t165 75l41 -3l47 -9
l132 -35l26 -5l24 -1q41 0 66 25t40 81z" />
    <glyph glyph-name="Ograve" unicode="&#xd2;" horiz-adv-x="1706" 
d="M1270 707q0 301 -119.5 484t-312.5 183q-175 0 -283.5 -145t-108.5 -387q0 -310 129.5 -512.5t321.5 -202.5q171 0 272 155t101 425zM879 1491q162 0 300 -57.5t246 -173.5q88 -93 138.5 -231t50.5 -292q0 -340 -216 -552t-562 -212q-337 0 -540.5 206.5t-203.5 547.5
q0 169 52.5 303t158.5 241t254 163.5t322 56.5zM762 1950l334 -346h-107l-395 207q-33 16 -52.5 29.5t-32.5 29.5q-24 27 -24 66q0 47 32.5 79.5t80.5 32.5q39 0 72 -20q32 -17 92 -78z" />
    <glyph glyph-name="Oacute" unicode="&#xd3;" horiz-adv-x="1706" 
d="M1270 707q0 301 -119.5 484t-312.5 183q-175 0 -283.5 -145t-108.5 -387q0 -310 129.5 -512.5t321.5 -202.5q171 0 272 155t101 425zM879 1491q162 0 300 -57.5t246 -173.5q88 -93 138.5 -231t50.5 -292q0 -340 -216 -552t-562 -212q-337 0 -540.5 206.5t-203.5 547.5
q0 169 52.5 303t158.5 241t254 163.5t322 56.5zM1116 1811l-397 -207h-107l334 346q57 60 92 79t72 19q48 0 80.5 -32t32.5 -80q0 -37 -24 -67q-24 -27 -83 -58z" />
    <glyph glyph-name="Ocircumflex" unicode="&#xd4;" horiz-adv-x="1706" 
d="M1270 707q0 301 -119.5 484t-312.5 183q-175 0 -283.5 -145t-108.5 -387q0 -310 129.5 -512.5t321.5 -202.5q171 0 272 155t101 425zM879 1491q162 0 300 -57.5t246 -173.5q88 -93 138.5 -231t50.5 -292q0 -340 -216 -552t-562 -212q-337 0 -540.5 206.5t-203.5 547.5
q0 169 52.5 303t158.5 241t254 163.5t322 56.5zM760 2026h188l266 -422h-100l-260 211l-260 -211h-100z" />
    <glyph glyph-name="Otilde" unicode="&#xd5;" horiz-adv-x="1706" 
d="M1270 707q0 301 -119.5 484t-312.5 183q-175 0 -283.5 -145t-108.5 -387q0 -310 129.5 -512.5t321.5 -202.5q171 0 272 155t101 425zM879 1491q162 0 300 -57.5t246 -173.5q88 -93 138.5 -231t50.5 -292q0 -340 -216 -552t-562 -212q-337 0 -540.5 206.5t-203.5 547.5
q0 169 52.5 303t158.5 241t254 163.5t322 56.5zM1124 1989h88q-24 -141 -89.5 -218t-162.5 -77l-32 2l-41 8l-127 33l-38 9l-26 3q-43 0 -71 -27t-43 -83h-86q24 147 87 222t165 75l41 -3l47 -9l132 -35l26 -5l24 -1q41 0 66 25t40 81z" />
    <glyph glyph-name="Odieresis" unicode="&#xd6;" horiz-adv-x="1706" 
d="M1270 707q0 301 -119.5 484t-312.5 183q-175 0 -283.5 -145t-108.5 -387q0 -310 129.5 -512.5t321.5 -202.5q171 0 272 155t101 425zM879 1491q162 0 300 -57.5t246 -173.5q88 -93 138.5 -231t50.5 -292q0 -340 -216 -552t-562 -212q-337 0 -540.5 206.5t-203.5 547.5
q0 169 52.5 303t158.5 241t254 163.5t322 56.5zM1069 1962q60 0 103.5 -43t43.5 -104q0 -64 -41.5 -107t-105.5 -43q-63 0 -106 44t-43 106q0 59 45 103t104 44zM643 1962q60 0 104 -42.5t44 -104.5q0 -64 -42 -107t-106 -43q-63 0 -107 43.5t-44 106.5q0 57 45 102t106 45z
" />
    <glyph glyph-name="multiply" unicode="&#xd7;" horiz-adv-x="1706" 
d="M416 1202l450 -450l451 450l141 -139l-450 -453l450 -450l-141 -140l-451 451l-450 -451l-140 140l451 450l-451 453z" />
    <glyph glyph-name="Oslash" unicode="&#xd8;" horiz-adv-x="1706" 
d="M1198 1102l-596 -805q75 -88 148.5 -129t154.5 -41q165 0 265 157.5t100 422.5q0 113 -18 212.5t-54 182.5zM1137 1206q-64 88 -135 127t-160 39q-182 0 -289 -147t-107 -402q0 -113 22.5 -216t70.5 -206zM1401 1552l86 -63l-125 -170q122 -101 187 -250.5t65 -331.5
q0 -183 -67 -335t-197 -261q-95 -79 -228 -123.5t-280 -44.5q-107 0 -203.5 24.5t-200.5 78.5l-155 -207l-88 65l151 203q-125 104 -189.5 252t-64.5 338q0 169 52.5 303t159 240.5t253 164.5t313.5 58q113 0 211 -27t189 -84z" />
    <glyph glyph-name="Ugrave" unicode="&#xd9;" horiz-adv-x="1620" 
d="M121 1468l105 -8l153 -2q44 0 112 1t91 1q43 0 65.5 1.5t73.5 6.5v-63q-78 -9 -102.5 -34t-24.5 -118v-749q0 -201 73.5 -281t250.5 -80q198 0 274 104t76 402v631q0 72 -27 98q-13 12 -41.5 19.5t-66.5 7.5v63l86 -8l120 -2q20 0 52 1t44 1q21 0 32 1.5t40 6.5v-63
q-62 0 -89 -27q-25 -28 -25 -96v-666q0 -67 -4 -127t-13 -111q-17 -102 -49 -159q-68 -125 -197.5 -187.5t-320.5 -62.5q-141 0 -251.5 37t-182.5 109q-67 67 -97 149.5t-30 247.5v741q0 92 -24 116t-103 36v63zM758 1950l334 -346h-107l-395 207q-33 16 -52.5 29.5
t-32.5 29.5q-24 27 -24 66q0 47 32.5 79.5t80.5 32.5q39 0 72 -20q32 -17 92 -78z" />
    <glyph glyph-name="Uacute" unicode="&#xda;" horiz-adv-x="1620" 
d="M121 1468l105 -8l153 -2q44 0 112 1t91 1q43 0 65.5 1.5t73.5 6.5v-63q-78 -9 -102.5 -34t-24.5 -118v-749q0 -201 73.5 -281t250.5 -80q198 0 274 104t76 402v631q0 72 -27 98q-13 12 -41.5 19.5t-66.5 7.5v63l86 -8l120 -2q20 0 52 1t44 1q21 0 32 1.5t40 6.5v-63
q-62 0 -89 -27q-25 -28 -25 -96v-666q0 -67 -4 -127t-13 -111q-17 -102 -49 -159q-68 -125 -197.5 -187.5t-320.5 -62.5q-141 0 -251.5 37t-182.5 109q-67 67 -97 149.5t-30 247.5v741q0 92 -24 116t-103 36v63zM1112 1811l-397 -207h-107l334 346q57 60 92 79t72 19
q48 0 80.5 -32t32.5 -80q0 -37 -24 -67q-24 -27 -83 -58z" />
    <glyph glyph-name="Ucircumflex" unicode="&#xdb;" horiz-adv-x="1620" 
d="M121 1468l105 -8l153 -2q44 0 112 1t91 1q43 0 65.5 1.5t73.5 6.5v-63q-78 -9 -102.5 -34t-24.5 -118v-749q0 -201 73.5 -281t250.5 -80q198 0 274 104t76 402v631q0 72 -27 98q-13 12 -41.5 19.5t-66.5 7.5v63l86 -8l120 -2q20 0 52 1t44 1q21 0 32 1.5t40 6.5v-63
q-62 0 -89 -27q-25 -28 -25 -96v-666q0 -67 -4 -127t-13 -111q-17 -102 -49 -159q-68 -125 -197.5 -187.5t-320.5 -62.5q-141 0 -251.5 37t-182.5 109q-67 67 -97 149.5t-30 247.5v741q0 92 -24 116t-103 36v63zM756 2026h188l266 -422h-100l-260 211l-260 -211h-100z" />
    <glyph glyph-name="Udieresis" unicode="&#xdc;" horiz-adv-x="1620" 
d="M121 1468l105 -8l153 -2q44 0 112 1t91 1q43 0 65.5 1.5t73.5 6.5v-63q-78 -9 -102.5 -34t-24.5 -118v-749q0 -201 73.5 -281t250.5 -80q198 0 274 104t76 402v631q0 72 -27 98q-13 12 -41.5 19.5t-66.5 7.5v63l86 -8l120 -2q20 0 52 1t44 1q21 0 32 1.5t40 6.5v-63
q-62 0 -89 -27q-25 -28 -25 -96v-666q0 -67 -4 -127t-13 -111q-17 -102 -49 -159q-68 -125 -197.5 -187.5t-320.5 -62.5q-141 0 -251.5 37t-182.5 109q-67 67 -97 149.5t-30 247.5v741q0 92 -24 116t-103 36v63zM1065 1962q60 0 103.5 -43t43.5 -104q0 -64 -41.5 -107
t-105.5 -43q-63 0 -106 44t-43 106q0 59 45 103t104 44zM639 1962q60 0 104 -42.5t44 -104.5q0 -64 -42 -107t-106 -43q-63 0 -107 43.5t-44 106.5q0 57 45 102t106 45z" />
    <glyph glyph-name="Yacute" unicode="&#xdd;" horiz-adv-x="842" 
d="M109 1468l109 -8l159 -2q45 0 116 1t96 1q46 0 69 1.5t77 6.5v-63q-41 0 -69.5 -8.5t-44.5 -23.5q-27 -24 -27 -120v-1044q0 -92 26.5 -116.5t114.5 -33.5v-65q-45 4 -76.5 6.5t-71.5 2.5l-184 3l-135 -3q-28 0 -54 -2q-89 -7 -105 -7v65q87 9 113 32.5t26 117.5v1044
q0 94 -27 120q-26 23 -112 32v63zM424 1971q63 0 109.5 -46t46.5 -110q0 -65 -44.5 -110.5t-111.5 -45.5q-62 0 -109 45.5t-47 110.5q0 60 48 108t108 48z" />
    <glyph glyph-name="Thorn" unicode="&#xde;" horiz-adv-x="1257" 
d="M584 -28q-39 0 -88.5 10.5t-121.5 30.5q-146 42 -204 42h-20l-3 232l-1 229h57q51 -196 156.5 -300.5t250.5 -104.5q108 0 181 61.5t73 153.5q0 67 -37 120t-120 101q-46 26 -93.5 51t-72.5 38q-100 52 -133 75q-153 101 -211 188t-58 201q0 167 129 279t322 112
q64 0 173 -23q54 -10 98 -16t69 -6h17h13q10 2 14 2l40 6q0 -8 -1 -29t-1 -34v-107v-113v-35.5t2 -37.5h-45q-48 145 -129.5 218t-192.5 73q-96 0 -158.5 -50.5t-62.5 -128.5q0 -118 230 -240l39 -19.5t42 -24.5l25 -14q178 -99 254 -179q53 -56 82.5 -133t29.5 -164
q0 -206 -141 -337q-66 -59 -144 -92.5t-171 -33.5v-104l36 6l40 2q97 0 154 -53t57 -143q0 -100 -70 -156.5t-194 -56.5q-68 0 -156.5 24t-204.5 76l51 113q84 -46 153 -69.5t122 -23.5q43 0 72.5 26.5t29.5 68.5q0 46 -26 69t-78 23h-18t-20 -2l-36 -6v205z" />
    <glyph glyph-name="germandbls" unicode="&#xdf;" horiz-adv-x="1274" 
d="M762 875q198 0 300.5 -103.5t102.5 -304.5q0 -216 -103 -356t-261 -140q-95 0 -144 45t-49 134q0 73 23 105t76 32q67 0 91.5 -20t24.5 -77l-2 -35l-2 -32q0 -38 14.5 -56t45.5 -18q50 0 76 48t26 139q0 109 -43.5 215t-122.5 190q-55 58 -122 92q-38 19 -71.5 29
t-70.5 10v76q113 23 171 120t58 257q0 102 -45.5 163.5t-122.5 61.5q-76 0 -114.5 -65.5t-38.5 -198.5v-979q0 -99 16.5 -122.5t65.5 -35.5v-55l-107 6l-121 2q-21 0 -61 -1t-59 -1l-107 -6v55q57 12 76.5 40t19.5 118v809q0 278 116.5 403t373.5 125q179 0 281 -81
t102 -224q0 -122 -73 -213.5t-220 -150.5z" />
    <glyph glyph-name="agrave" unicode="&#xe0;" horiz-adv-x="1059" 
d="M633 526q-57 0 -103 -17t-82 -48q-65 -54 -65 -144q0 -67 34.5 -105t94.5 -38q19 0 35.5 3t32.5 11q29 13 53 43v295zM901 637v-432q0 -35 6.5 -51t22.5 -17q16 0 29 3.5t26 13.5v-62q-48 -57 -102.5 -87t-110.5 -30q-67 0 -103 45q-17 23 -26.5 57.5t-9.5 77.5
q-85 -90 -164 -136t-152 -46q-98 0 -163.5 72.5t-65.5 183.5q0 156 138 251t407 122v172q0 61 -31 94t-86 33q-59 0 -85 -30q-13 -16 -21.5 -44.5t-8.5 -69.5q0 -43 -9.5 -71t-24.5 -38q-29 -19 -117 -19q-60 0 -86 21q-23 21 -23 75q0 132 101 196t305 64
q187 0 270.5 -81.5t83.5 -266.5zM438 1456l334 -346h-107l-395 207q-33 16 -52.5 29.5t-32.5 29.5q-24 27 -24 66q0 47 32.5 79.5t80.5 32.5q39 0 72 -20q32 -17 92 -78z" />
    <glyph glyph-name="aacute" unicode="&#xe1;" horiz-adv-x="1059" 
d="M633 526q-57 0 -103 -17t-82 -48q-65 -54 -65 -144q0 -67 34.5 -105t94.5 -38q19 0 35.5 3t32.5 11q29 13 53 43v295zM901 637v-432q0 -35 6.5 -51t22.5 -17q16 0 29 3.5t26 13.5v-62q-48 -57 -102.5 -87t-110.5 -30q-67 0 -103 45q-17 23 -26.5 57.5t-9.5 77.5
q-85 -90 -164 -136t-152 -46q-98 0 -163.5 72.5t-65.5 183.5q0 156 138 251t407 122v172q0 61 -31 94t-86 33q-59 0 -85 -30q-13 -16 -21.5 -44.5t-8.5 -69.5q0 -43 -9.5 -71t-24.5 -38q-29 -19 -117 -19q-60 0 -86 21q-23 21 -23 75q0 132 101 196t305 64
q187 0 270.5 -81.5t83.5 -266.5zM792 1317l-397 -207h-107l334 346q57 60 92 79t72 19q48 0 80.5 -32t32.5 -80q0 -37 -24 -67q-24 -27 -83 -58z" />
    <glyph glyph-name="acircumflex" unicode="&#xe2;" horiz-adv-x="1059" 
d="M633 526q-57 0 -103 -17t-82 -48q-65 -54 -65 -144q0 -67 34.5 -105t94.5 -38q19 0 35.5 3t32.5 11q29 13 53 43v295zM901 637v-432q0 -35 6.5 -51t22.5 -17q16 0 29 3.5t26 13.5v-62q-48 -57 -102.5 -87t-110.5 -30q-67 0 -103 45q-17 23 -26.5 57.5t-9.5 77.5
q-85 -90 -164 -136t-152 -46q-98 0 -163.5 72.5t-65.5 183.5q0 156 138 251t407 122v172q0 61 -31 94t-86 33q-59 0 -85 -30q-13 -16 -21.5 -44.5t-8.5 -69.5q0 -43 -9.5 -71t-24.5 -38q-29 -19 -117 -19q-60 0 -86 21q-23 21 -23 75q0 132 101 196t305 64
q187 0 270.5 -81.5t83.5 -266.5zM436 1532h188l266 -422h-100l-260 211l-260 -211h-100z" />
    <glyph glyph-name="atilde" unicode="&#xe3;" horiz-adv-x="1059" 
d="M633 526q-57 0 -103 -17t-82 -48q-65 -54 -65 -144q0 -67 34.5 -105t94.5 -38q19 0 35.5 3t32.5 11q29 13 53 43v295zM901 637v-432q0 -35 6.5 -51t22.5 -17q16 0 29 3.5t26 13.5v-62q-48 -57 -102.5 -87t-110.5 -30q-67 0 -103 45q-17 23 -26.5 57.5t-9.5 77.5
q-85 -90 -164 -136t-152 -46q-98 0 -163.5 72.5t-65.5 183.5q0 156 138 251t407 122v172q0 61 -31 94t-86 33q-59 0 -85 -30q-13 -16 -21.5 -44.5t-8.5 -69.5q0 -43 -9.5 -71t-24.5 -38q-29 -19 -117 -19q-60 0 -86 21q-23 21 -23 75q0 132 101 196t305 64
q187 0 270.5 -81.5t83.5 -266.5zM800 1495h88q-24 -141 -89.5 -218t-162.5 -77l-32 2l-41 8l-127 33l-38 9l-26 3q-43 0 -71 -27t-43 -83h-86q24 147 87 222t165 75l41 -3l47 -9l132 -35l26 -5l24 -1q41 0 66 25t40 81z" />
    <glyph glyph-name="adieresis" unicode="&#xe4;" horiz-adv-x="1059" 
d="M633 526q-57 0 -103 -17t-82 -48q-65 -54 -65 -144q0 -67 34.5 -105t94.5 -38q19 0 35.5 3t32.5 11q29 13 53 43v295zM901 637v-432q0 -35 6.5 -51t22.5 -17q16 0 29 3.5t26 13.5v-62q-48 -57 -102.5 -87t-110.5 -30q-67 0 -103 45q-17 23 -26.5 57.5t-9.5 77.5
q-85 -90 -164 -136t-152 -46q-98 0 -163.5 72.5t-65.5 183.5q0 156 138 251t407 122v172q0 61 -31 94t-86 33q-59 0 -85 -30q-13 -16 -21.5 -44.5t-8.5 -69.5q0 -43 -9.5 -71t-24.5 -38q-29 -19 -117 -19q-60 0 -86 21q-23 21 -23 75q0 132 101 196t305 64
q187 0 270.5 -81.5t83.5 -266.5zM745 1468q60 0 103.5 -43t43.5 -104q0 -64 -41.5 -107t-105.5 -43q-63 0 -106 44t-43 106q0 59 45 103t104 44zM319 1468q60 0 104 -42.5t44 -104.5q0 -64 -42 -107t-106 -43q-63 0 -107 43.5t-44 106.5q0 57 45 102t106 45z" />
    <glyph glyph-name="aring" unicode="&#xe5;" horiz-adv-x="1059" 
d="M633 526q-57 0 -103 -17t-82 -48q-65 -54 -65 -144q0 -67 34.5 -105t94.5 -38q19 0 35.5 3t32.5 11q29 13 53 43v295zM901 637v-432q0 -35 6.5 -51t22.5 -17q16 0 29 3.5t26 13.5v-62q-48 -57 -102.5 -87t-110.5 -30q-67 0 -103 45q-17 23 -26.5 57.5t-9.5 77.5
q-85 -90 -164 -136t-152 -46q-98 0 -163.5 72.5t-65.5 183.5q0 156 138 251t407 122v172q0 61 -31 94t-86 33q-59 0 -85 -30q-13 -16 -21.5 -44.5t-8.5 -69.5q0 -43 -9.5 -71t-24.5 -38q-29 -19 -115 -19q-63 0 -87 21t-24 75q0 132 101 196t305 64q187 0 270.5 -81.5
t83.5 -266.5zM545 1499q-62 0 -105 -41.5t-43 -103.5q0 -63 42.5 -104.5t103.5 -41.5q59 0 102 42t43 104t-41 103.5t-102 41.5zM543 1649q123 0 209 -85t86 -208q0 -124 -85.5 -209.5t-209.5 -85.5q-123 0 -208 84.5t-85 210.5q0 123 85 208t208 85z" />
    <glyph glyph-name="ae" unicode="&#xe6;" horiz-adv-x="1536" 
d="M625 532q-106 -12 -174 -75.5t-68 -149.5q0 -58 28 -89.5t81 -31.5q48 0 89.5 18t77.5 52q-14 45 -26 109q-8 62 -8 127v40zM1174 655v9q0 108 -38.5 169.5t-107.5 61.5q-76 0 -122 -61q-22 -30 -33 -70.5t-11 -95.5v-13h312zM784 856q47 62 115.5 94.5t155.5 32.5
q171 0 277 -104.5t106 -278.5v-18h-578q0 -90 20.5 -157.5t60.5 -118.5q75 -95 212 -95q80 0 151.5 36t120.5 105l48 -33q-63 -170 -169.5 -259t-244.5 -89q-121 0 -211.5 53.5t-153.5 159.5q-91 -109 -179 -161t-183 -52q-111 0 -180.5 69.5t-69.5 182.5q0 161 134 255
t407 124v172q0 63 -27.5 95t-83.5 32q-59 0 -85 -30q-13 -16 -21.5 -44.5t-8.5 -69.5q0 -43 -9 -70t-25 -38q-29 -20 -119 -20q-59 0 -84 21t-25 73q0 125 93.5 192.5t271.5 67.5q106 0 172.5 -30t111.5 -97z" />
    <glyph glyph-name="ccedilla" unicode="&#xe7;" horiz-adv-x="934" 
d="M422 -23q-149 20 -245 125q-118 130 -118 344q0 243 137 391t359 148q143 0 229 -72t86 -192q0 -66 -28 -90.5t-109 -24.5q-73 0 -102 22t-35 81l-3 38q0 78 -25.5 119t-69.5 41q-77 0 -136 -90t-59 -221q0 -176 78.5 -278.5t214.5 -102.5q82 0 148 35t114 102l47 -30
q-63 -171 -170 -260q-51 -43 -106.5 -65.5t-118.5 -22.5v-105l36 6l40 2q97 0 154 -53t57 -143q0 -100 -70 -156.5t-194 -56.5q-68 0 -156.5 24t-204.5 76l51 113q84 -46 153 -69.5t122 -23.5q43 0 72.5 26.5t29.5 68.5q0 46 -26 69t-78 23h-18t-20 -2l-36 -6v210z" />
    <glyph glyph-name="egrave" unicode="&#xe8;" horiz-adv-x="940" 
d="M864 582h-579q0 -91 20.5 -158.5t60.5 -118.5q76 -94 212 -94q80 0 150.5 36t121.5 105l47 -33q-63 -174 -169.5 -261t-256.5 -87q-190 0 -300 131t-110 359q0 240 117.5 380t319.5 140q158 0 262 -106t104 -273v-20zM598 655v9q0 108 -38.5 169.5t-106.5 61.5
q-76 0 -122 -61q-22 -30 -33 -70.5t-11 -95.5v-13h311zM379 1456l334 -346h-107l-395 207q-33 16 -52.5 29.5t-32.5 29.5q-24 27 -24 66q0 47 32.5 79.5t80.5 32.5q39 0 72 -20q32 -17 92 -78z" />
    <glyph glyph-name="eacute" unicode="&#xe9;" horiz-adv-x="940" 
d="M864 582h-579q0 -91 20.5 -158.5t60.5 -118.5q76 -94 212 -94q80 0 150.5 36t121.5 105l47 -33q-63 -174 -169.5 -261t-256.5 -87q-190 0 -300 131t-110 359q0 240 117.5 380t319.5 140q158 0 262 -106t104 -273v-20zM598 655v9q0 108 -38.5 169.5t-106.5 61.5
q-76 0 -122 -61q-22 -30 -33 -70.5t-11 -95.5v-13h311zM733 1317l-397 -207h-107l334 346q57 60 92 79t72 19q48 0 80.5 -32t32.5 -80q0 -37 -24 -67q-24 -27 -83 -58z" />
    <glyph glyph-name="ecircumflex" unicode="&#xea;" horiz-adv-x="940" 
d="M864 582h-579q0 -91 20.5 -158.5t60.5 -118.5q76 -94 212 -94q80 0 150.5 36t121.5 105l47 -33q-63 -174 -169.5 -261t-256.5 -87q-190 0 -300 131t-110 359q0 240 117.5 380t319.5 140q158 0 262 -106t104 -273v-20zM598 655v9q0 108 -38.5 169.5t-106.5 61.5
q-76 0 -122 -61q-22 -30 -33 -70.5t-11 -95.5v-13h311zM377 1532h188l266 -422h-100l-260 211l-260 -211h-100z" />
    <glyph glyph-name="edieresis" unicode="&#xeb;" horiz-adv-x="940" 
d="M864 582h-579q0 -91 20.5 -158.5t60.5 -118.5q76 -94 212 -94q80 0 150.5 36t121.5 105l47 -33q-63 -174 -169.5 -261t-256.5 -87q-190 0 -300 131t-110 359q0 240 117.5 380t319.5 140q158 0 262 -106t104 -273v-20zM598 655v9q0 108 -38.5 169.5t-106.5 61.5
q-76 0 -122 -61q-22 -30 -33 -70.5t-11 -95.5v-13h311zM686 1468q60 0 103.5 -43t43.5 -104q0 -64 -41.5 -107t-105.5 -43q-63 0 -106 44t-43 106q0 59 45 103t104 44zM260 1468q60 0 104 -42.5t44 -104.5q0 -64 -42 -107t-106 -43q-63 0 -107 43.5t-44 106.5q0 57 45 102
t106 45z" />
    <glyph glyph-name="igrave" unicode="&#xec;" horiz-adv-x="612" 
d="M377 983h78v-776q0 -90 19 -117.5t77 -40.5v-55l-111 6l-125 2q-23 0 -64.5 -1t-59.5 -1l-109 -6v55q57 12 76.5 40t19.5 118v514q0 72 -20 91q-9 9 -29 15.5t-47 6.5v55q63 9 135 33q35 11 74.5 26t85.5 35zM215 1456l334 -346h-107l-395 207q-33 16 -52.5 29.5
t-32.5 29.5q-24 27 -24 66q0 47 32.5 79.5t80.5 32.5q39 0 72 -20q32 -17 92 -78z" />
    <glyph glyph-name="iacute" unicode="&#xed;" horiz-adv-x="612" 
d="M377 983h78v-776q0 -90 19 -117.5t77 -40.5v-55l-111 6l-125 2q-23 0 -64.5 -1t-59.5 -1l-109 -6v55q57 12 76.5 40t19.5 118v514q0 72 -20 91q-9 9 -29 15.5t-47 6.5v55q63 9 135 33q35 11 74.5 26t85.5 35zM569 1317l-397 -207h-107l334 346q57 60 92 79t72 19
q48 0 80.5 -32t32.5 -80q0 -37 -24 -67q-24 -27 -83 -58z" />
    <glyph glyph-name="icircumflex" unicode="&#xee;" horiz-adv-x="612" 
d="M377 983h78v-776q0 -90 19 -117.5t77 -40.5v-55l-111 6l-125 2q-23 0 -64.5 -1t-59.5 -1l-109 -6v55q57 12 76.5 40t19.5 118v514q0 72 -20 91q-9 9 -29 15.5t-47 6.5v55q63 9 135 33q35 11 74.5 26t85.5 35zM213 1532h188l266 -422h-100l-260 211l-260 -211h-100z" />
    <glyph glyph-name="idieresis" unicode="&#xef;" horiz-adv-x="612" 
d="M377 983h78v-776q0 -90 19 -117.5t77 -40.5v-55l-111 6l-125 2q-23 0 -64.5 -1t-59.5 -1l-109 -6v55q57 12 76.5 40t19.5 118v514q0 72 -20 91q-9 9 -29 15.5t-47 6.5v55q63 9 135 33q35 11 74.5 26t85.5 35zM522 1468q60 0 103.5 -43t43.5 -104q0 -64 -41.5 -107
t-105.5 -43q-63 0 -106 44t-43 106q0 59 45 103t104 44zM96 1468q60 0 104 -42.5t44 -104.5q0 -64 -42 -107t-106 -43q-63 0 -107 43.5t-44 106.5q0 57 45 102t106 45z" />
    <glyph glyph-name="eth" unicode="&#xf0;" horiz-adv-x="1053" 
d="M370 -52q-25 -32 -41 -67q-14 -34 -14 -63q0 -75 70 -120.5t184 -45.5q112 0 179 40t67 105q0 108 -368 144zM752 887l51 35q42 28 68.5 39.5t50.5 11.5q42 0 68 -26t26 -70q0 -33 -23.5 -56.5t-56.5 -23.5q-32 0 -59 28q-25 28 -29 29q-9 0 -33 -8l-18 -6
q37 -47 55 -104t18 -130q0 -146 -102.5 -238t-267.5 -92l-53 3q-27 3 -66 12q-25 -18 -37 -34t-12 -30q0 -29 162 -50l75 -9l13 -2q230 -30 292 -78q42 -31 67.5 -84.5t25.5 -112.5q0 -161 -145 -259.5t-390 -98.5q-186 0 -282.5 56t-96.5 163q0 66 54 119.5t165 95.5
q-89 20 -134.5 55.5t-45.5 83.5q0 50 52.5 98.5t172.5 110.5q-99 48 -151.5 129.5t-52.5 184.5q0 149 112 252.5t275 103.5q69 0 132.5 -24.5t119.5 -73.5zM463 893q-50 0 -80.5 -38t-30.5 -101q0 -151 56 -253t135 -102q48 0 73 35.5t25 104.5q0 153 -52 253.5t-126 100.5z
M164 1493h92q19 -77 82 -112t188 -35q126 0 187.5 33.5t80.5 113.5h92q-24 -169 -116.5 -257.5t-243.5 -88.5q-154 0 -245 87.5t-117 258.5z" />
    <glyph glyph-name="ntilde" unicode="&#xf1;" horiz-adv-x="1198" 
d="M377 983h55v-199q89 104 170.5 151.5t173.5 47.5q118 0 187 -78.5t69 -218.5v-479q0 -90 19 -117.5t77 -40.5v-55l-110 6l-125 2q-23 0 -64.5 -1t-59.5 -1l-110 -6v55q57 12 77 41t20 117v452q0 75 -35 113.5t-103 38.5q-42 0 -84 -18.5t-79 -55.5v-530q0 -90 19 -117.5
t77 -40.5v-55l-111 6l-125 2q-23 0 -64.5 -1t-59.5 -1l-109 -6v55q57 12 76.5 40t19.5 118v514q0 72 -20 91q-9 9 -29 15.5t-47 6.5v55q63 9 135 33q35 11 74.5 26t85.5 35zM870 1495h88q-24 -141 -89.5 -218t-162.5 -77l-32 2l-41 8l-127 33l-38 9l-26 3q-43 0 -71 -27
t-43 -83h-86q24 147 87 222t165 75l41 -3l47 -9l132 -35l26 -5l24 -1q41 0 66 25t40 81z" />
    <glyph glyph-name="ograve" unicode="&#xf2;" horiz-adv-x="1112" 
d="M524 872q-87 0 -141.5 -79t-54.5 -211q0 -194 83 -327.5t195 -133.5q86 0 134 73.5t48 208.5q0 206 -75.5 337.5t-188.5 131.5zM59 463q0 223 144.5 371.5t363.5 148.5q209 0 348.5 -144.5t139.5 -361.5q0 -222 -142.5 -364t-365.5 -142q-219 0 -353.5 135.5
t-134.5 356.5zM465 1456l334 -346h-107l-395 207q-33 16 -52.5 29.5t-32.5 29.5q-24 27 -24 66q0 47 32.5 79.5t80.5 32.5q39 0 72 -20q32 -17 92 -78z" />
    <glyph glyph-name="oacute" unicode="&#xf3;" horiz-adv-x="1112" 
d="M524 872q-87 0 -141.5 -79t-54.5 -211q0 -194 83 -327.5t195 -133.5q86 0 134 73.5t48 208.5q0 206 -75.5 337.5t-188.5 131.5zM59 463q0 223 144.5 371.5t363.5 148.5q209 0 348.5 -144.5t139.5 -361.5q0 -222 -142.5 -364t-365.5 -142q-219 0 -353.5 135.5
t-134.5 356.5zM819 1317l-397 -207h-107l334 346q57 60 92 79t72 19q48 0 80.5 -32t32.5 -80q0 -37 -24 -67q-24 -27 -83 -58z" />
    <glyph glyph-name="ocircumflex" unicode="&#xf4;" horiz-adv-x="1112" 
d="M524 872q-87 0 -141.5 -79t-54.5 -211q0 -194 83 -327.5t195 -133.5q86 0 134 73.5t48 208.5q0 206 -75.5 337.5t-188.5 131.5zM59 463q0 223 144.5 371.5t363.5 148.5q209 0 348.5 -144.5t139.5 -361.5q0 -222 -142.5 -364t-365.5 -142q-219 0 -353.5 135.5
t-134.5 356.5zM463 1532h188l266 -422h-100l-260 211l-260 -211h-100z" />
    <glyph glyph-name="otilde" unicode="&#xf5;" horiz-adv-x="1112" 
d="M524 872q-87 0 -141.5 -79t-54.5 -211q0 -194 83 -327.5t195 -133.5q86 0 134 73.5t48 208.5q0 206 -75.5 337.5t-188.5 131.5zM59 463q0 223 144.5 371.5t363.5 148.5q209 0 348.5 -144.5t139.5 -361.5q0 -222 -142.5 -364t-365.5 -142q-219 0 -353.5 135.5
t-134.5 356.5zM827 1495h88q-24 -141 -89.5 -218t-162.5 -77l-32 2l-41 8l-127 33l-38 9l-26 3q-43 0 -71 -27t-43 -83h-86q24 147 87 222t165 75l41 -3l47 -9l132 -35l26 -5l24 -1q41 0 66 25t40 81z" />
    <glyph glyph-name="odieresis" unicode="&#xf6;" horiz-adv-x="1112" 
d="M524 872q-87 0 -141.5 -79t-54.5 -211q0 -194 83 -327.5t195 -133.5q86 0 134 73.5t48 208.5q0 206 -75.5 337.5t-188.5 131.5zM59 463q0 223 144.5 371.5t363.5 148.5q209 0 348.5 -144.5t139.5 -361.5q0 -222 -142.5 -364t-365.5 -142q-219 0 -353.5 135.5
t-134.5 356.5zM772 1468q60 0 103.5 -43t43.5 -104q0 -64 -41.5 -107t-105.5 -43q-63 0 -106 44t-43 106q0 59 45 103t104 44zM346 1468q60 0 104 -42.5t44 -104.5q0 -64 -42 -107t-106 -43q-63 0 -107 43.5t-44 106.5q0 57 45 102t106 45z" />
    <glyph glyph-name="divide" unicode="&#xf7;" horiz-adv-x="1706" 
d="M854 369q60 0 106 -45t46 -107q0 -60 -45.5 -104.5t-106.5 -44.5q-64 0 -108 42.5t-44 106.5q0 63 44.5 107.5t107.5 44.5zM254 711h1198v-199h-1198v199zM854 1155q60 0 106 -44.5t46 -106.5q0 -63 -44.5 -107.5t-107.5 -44.5q-64 0 -108 45t-44 107q0 63 45 107t107 44
z" />
    <glyph glyph-name="oslash" unicode="&#xf8;" horiz-adv-x="1112" 
d="M745 655l-317 -417q39 -56 86.5 -84.5t95.5 -28.5q85 0 131.5 73t46.5 208q0 73 -11 131q-9 66 -32 118zM702 752q-31 61 -71.5 90.5t-93.5 29.5q-96 0 -152.5 -77.5t-56.5 -212.5q0 -64 12 -129.5t37 -126.5zM944 1059l74 -58l-115 -149q76 -76 114 -170
q20 -49 30 -97.5t10 -105.5q0 -221 -142 -364.5t-364 -143.5q-70 0 -137 18t-133 54l-138 -176l-75 57l137 178q-70 65 -108 160t-38 203q0 223 144.5 370.5t367.5 147.5q74 0 136.5 -18.5t119.5 -55.5z" />
    <glyph glyph-name="ugrave" unicode="&#xf9;" horiz-adv-x="1198" 
d="M414 983h30v-688q0 -75 34.5 -112.5t103.5 -37.5q41 0 82 19q43 18 81 55v539q0 45 -14.5 58t-64.5 13v54q41 6 80 14.5t82 22.5q78 25 161 63h31v-762q0 -60 16 -77q16 -14 67 -19l1 -59q-62 -6 -135.5 -28.5t-157.5 -64.5h-49l-14 179q-54 -85 -133.5 -132t-176.5 -47
q-128 0 -199 77t-71 218v482q0 47 -18 62t-76 15v55q34 4 67 11t78 21q84 24 195 69zM508 1456l334 -346h-107l-395 207q-33 16 -52.5 29.5t-32.5 29.5q-24 27 -24 66q0 47 32.5 79.5t80.5 32.5q39 0 72 -20q32 -17 92 -78z" />
    <glyph glyph-name="uacute" unicode="&#xfa;" horiz-adv-x="1198" 
d="M414 983h30v-688q0 -75 34.5 -112.5t103.5 -37.5q41 0 82 19q43 18 81 55v539q0 45 -14.5 58t-64.5 13v54q41 6 80 14.5t82 22.5q78 25 161 63h31v-762q0 -60 16 -77q16 -14 67 -19l1 -59q-62 -6 -135.5 -28.5t-157.5 -64.5h-49l-14 179q-54 -85 -133.5 -132t-176.5 -47
q-128 0 -199 77t-71 218v482q0 47 -18 62t-76 15v55q34 4 67 11t78 21q84 24 195 69zM862 1317l-397 -207h-107l334 346q57 60 92 79t72 19q48 0 80.5 -32t32.5 -80q0 -37 -24 -67q-24 -27 -83 -58z" />
    <glyph glyph-name="ucircumflex" unicode="&#xfb;" horiz-adv-x="1198" 
d="M414 983h30v-688q0 -75 34.5 -112.5t103.5 -37.5q41 0 82 19q43 18 81 55v539q0 45 -14.5 58t-64.5 13v54q41 6 80 14.5t82 22.5q78 25 161 63h31v-762q0 -60 16 -77q16 -14 67 -19l1 -59q-62 -6 -135.5 -28.5t-157.5 -64.5h-49l-14 179q-54 -85 -133.5 -132t-176.5 -47
q-128 0 -199 77t-71 218v482q0 47 -18 62t-76 15v55q34 4 67 11t78 21q84 24 195 69zM506 1532h188l266 -422h-100l-260 211l-260 -211h-100z" />
    <glyph glyph-name="udieresis" unicode="&#xfc;" horiz-adv-x="1198" 
d="M414 983h30v-688q0 -75 34.5 -112.5t103.5 -37.5q41 0 82 19q43 18 81 55v539q0 45 -14.5 58t-64.5 13v54q41 6 80 14.5t82 22.5q78 25 161 63h31v-762q0 -60 16 -77q16 -14 67 -19l1 -59q-62 -6 -135.5 -28.5t-157.5 -64.5h-49l-14 179q-54 -85 -133.5 -132t-176.5 -47
q-128 0 -199 77t-71 218v482q0 47 -18 62t-76 15v55q34 4 67 11t78 21q84 24 195 69zM815 1468q60 0 103.5 -43t43.5 -104q0 -64 -41.5 -107t-105.5 -43q-63 0 -106 44t-43 106q0 59 45 103t104 44zM389 1468q60 0 104 -42.5t44 -104.5q0 -64 -42 -107t-106 -43
q-63 0 -107 43.5t-44 106.5q0 57 45 102t106 45z" />
    <glyph glyph-name="yacute" unicode="&#xfd;" horiz-adv-x="612" 
d="M377 983h78v-776q0 -90 19 -117.5t77 -40.5v-55l-111 6l-125 2q-23 0 -64.5 -1t-59.5 -1l-109 -6v55q57 12 76.5 40t19.5 118v514q0 72 -20 91q-9 9 -29 15.5t-47 6.5v55q63 9 135 33q35 11 74.5 26t85.5 35z" />
    <glyph glyph-name="thorn" unicode="&#xfe;" horiz-adv-x="893" 
d="M401 -22q-30 5 -52.5 10t-53.5 14q-102 29 -143 29l-12 -1l-11 -1l4 134l2 128v53h51q21 -123 96.5 -197.5t176.5 -74.5q62 0 97.5 31.5t35.5 86.5q0 63 -140 142l-18 10q-192 105 -249.5 177.5t-57.5 174.5q0 126 85.5 207.5t219.5 81.5q46 0 125 -17.5t107 -17.5l37 1
q16 2 24 5l3 -104l7 -131h-47q-24 93 -84 144.5t-139 51.5q-56 0 -90.5 -31.5t-34.5 -82.5q0 -74 139 -146l80 -43q126 -70 174.5 -143.5t48.5 -177.5q0 -139 -90 -229q-43 -42 -93 -65t-110 -23v-105l36 6l40 2q97 0 154 -53t57 -143q0 -100 -70 -156.5t-194 -56.5
q-68 0 -156.5 24t-204.5 76l51 113q84 -46 153 -69.5t122 -23.5q43 0 72.5 26.5t29.5 68.5q0 46 -26 69t-78 23h-18t-20 -2l-36 -6v211z" />
    <glyph glyph-name="ydieresis" unicode="&#xff;" horiz-adv-x="944" 
d="M-4 960l143 -6l92 -2q13 0 44 1t50 1l148 6v-52q-32 0 -56 -17q-18 -12 -18 -37v-16q3 -11 5 -22.5t10 -27.5l166 -415l123 396l3 11q13 47 13 64q0 25 -21 40t-65 23v54l6 -1q38 0 72.5 -2.5t74.5 -5.5h21h18q13 2 20 2l81 6v-53q-36 -9 -62 -45.5t-65 -146.5l-277 -781
q-88 -251 -155 -324t-177 -73q-92 0 -135 41.5t-43 134.5q0 101 21 127.5t102 26.5q48 0 64 -12.5t20 -58.5l2 -34q0 -81 49 -81q32 0 56.5 30.5t54.5 112.5l61 166l-328 779l-6 15q-48 116 -112 123v53zM688 1468q60 0 103.5 -43t43.5 -104q0 -64 -41.5 -107t-105.5 -43
q-63 0 -106 44t-43 106q0 59 45 103t104 44zM262 1468q60 0 104 -42.5t44 -104.5q0 -64 -42 -107t-106 -43q-63 0 -107 43.5t-44 106.5q0 57 45 102t106 45z" />
    <glyph glyph-name="breve" unicode="&#x2d8;" horiz-adv-x="1024" 
d="M150 1493h92q19 -77 82 -112t188 -35q126 0 187.5 33.5t80.5 113.5h92q-24 -169 -116.5 -257.5t-243.5 -88.5q-154 0 -245 87.5t-117 258.5z" />
    <glyph glyph-name="dotaccent" unicode="&#x2d9;" horiz-adv-x="1024" 
d="M514 1477q63 0 109.5 -46t46.5 -110q0 -65 -44.5 -110.5t-111.5 -45.5q-62 0 -109 45.5t-47 110.5q0 60 48 108t108 48z" />
    <glyph glyph-name="dotlessi" unicode="&#x131;" horiz-adv-x="612" 
d="M377 983h78v-776q0 -90 19 -117.5t77 -40.5v-55l-111 6l-125 2q-23 0 -64.5 -1t-59.5 -1l-109 -6v55q57 12 76.5 40t19.5 118v514q0 72 -20 91q-9 9 -29 15.5t-47 6.5v55q63 9 135 33q35 11 74.5 26t85.5 35z" />
    <glyph glyph-name="ring" unicode="&#x2da;" horiz-adv-x="1024" 
d="M514 1528q-60 0 -102.5 -42.5t-42.5 -105.5q0 -59 42 -102t103 -43q59 0 102 42t43 103q0 62 -43 105t-102 43zM512 1675q123 0 209 -84.5t86 -208.5t-85.5 -209.5t-209.5 -85.5q-123 0 -208 85.5t-85 209.5q0 123 85 208t208 85z" />
    <glyph glyph-name="ogonek" unicode="&#x2db;" horiz-adv-x="1024" 
d="M627 35h61q-99 -78 -143.5 -149.5t-44.5 -145.5q0 -63 26 -95t78 -32q35 0 65 20q30 18 58 58l37 -21q-45 -98 -112 -147t-152 -49t-137 48t-52 128q0 94 80.5 192t235.5 193z" />
    <glyph glyph-name="caron" unicode="&#x2c7;" horiz-adv-x="1024" 
d="M152 1532h100l260 -213l260 213h100l-266 -422h-188z" />
    <glyph glyph-name="Lslash" unicode="&#x141;" horiz-adv-x="1323" 
d="M133 1468l131 -8l168 -2q36 0 93.5 1t78.5 1q39 0 58.5 1.5t72.5 6.5v-63q-81 -9 -106 -34.5t-25 -117.5v-348l260 164l51 -96l-311 -199v-586q0 -55 16 -67q18 -10 87 -10q243 0 359.5 62.5t176.5 219.5h55l-18 -78q-15 -63 -32 -129l-46 -192l-189 7l-278 3l-346 -3
q-64 0 -158.5 -3.5t-111.5 -3.5v65q87 9 113 32.5t26 117.5v377l-195 -127l-51 100l246 160v534q0 91 -23.5 115.5t-101.5 36.5v63z" />
    <glyph glyph-name="lslash" unicode="&#x142;" horiz-adv-x="655" 
d="M428 1544h37v-620l131 92l49 -86l-180 -123v-600q0 -90 18.5 -117.5t77.5 -40.5v-55l-111 6l-124 2q-23 0 -64.5 -1t-59.5 -1l-110 -6v55q57 12 76.5 41.5t19.5 116.5v459l-133 -88l-47 81l180 121v484q0 69 -18 88.5t-73 25.5l-1 58q43 6 81.5 15t82.5 23q84 28 168 70z
" />
    <glyph glyph-name="fraction" unicode="&#x2215;" horiz-adv-x="389" 
d="M713 1430l65 -50l-1102 -1407l-65 50z" />
    <glyph glyph-name="fi" unicode="&#xf001;" horiz-adv-x="1237" 
d="M455 1174v-218h247q92 0 170 7q45 0 101 9q12 2 61 11h37v-776q0 -90 19 -117.5t77 -40.5v-55l-111 6l-124 2q-23 0 -64.5 -1t-59.5 -1l-110 -6v55q56 12 76.5 40t20.5 118v553q0 73 -18.5 93.5t-74.5 20.5h-247v-667q0 -90 19 -117.5t77 -40.5v-55l-111 6l-125 2
q-23 0 -64.5 -1t-59.5 -1l-109 -6v55q56 12 76 41t20 117v667h-88v82l88 1q0 16 -2 25v40q0 258 126 390t376 132q159 0 239 -51.5t80 -153.5q0 -45 -27.5 -69.5t-82.5 -24.5q-61 0 -87 19t-38.5 90t-35 91.5t-71.5 20.5q-99 0 -149.5 -73t-50.5 -219z" />
    <glyph glyph-name="fl" unicode="&#xf002;" horiz-adv-x="1253" 
d="M799 1269l-18 -1h-23q-42 0 -60.5 20t-25.5 74l-2 12q-9 99 -80 99q-74 0 -104.5 -53t-30.5 -191v-273h344v313zM819 1475q25 0 51.5 5.5t58.5 15.5q52 17 107 48h37v-1337q0 -88 19.5 -116t78.5 -42v-55l-110 6l-125 2q-23 0 -65 -1t-61 -1l-110 -6v55q58 12 78.5 41.5
t20.5 116.5v667h-344v-667q0 -90 19 -117.5t77 -40.5v-55l-111 6l-125 2q-23 0 -64.5 -1t-59.5 -1l-109 -6v55q57 12 76.5 40t19.5 118v667h-88v82l88 1q0 301 103 445t319 144q68 0 123 -18t96 -53z" />
    <glyph glyph-name="Zcaron" unicode="&#x17d;" horiz-adv-x="1448" 
d="M191 1468l235 -8l397 -2q66 0 172 1t146 1q49 0 93 2q131 6 140 6l-860 -1349h148q194 0 327.5 18t188.5 53q45 29 77 86.5t54 149.5h53l-11 -202l-6 -230l-274 5l-328 1l-374 -1q-74 0 -185.5 -2.5t-127.5 -2.5l851 1358h-170q-276 0 -373 -57.5t-131 -215.5h-63l15 191
zM365 2026h100l260 -213l260 213h100l-266 -422h-188z" />
    <glyph glyph-name="zcaron" unicode="&#x17e;" horiz-adv-x="993" 
d="M109 963l177 -7l220 -2q39 0 110 1t102 1q39 0 103 3.5t80 3.5l-481 -869h90q176 0 243.5 43.5t92.5 159.5h51l-15 -272v-14q0 -9 -2 -17l-213 5l-157 1l-205 -1l-253 -5l483 874h-113q-139 0 -191.5 -39t-83.5 -147h-50l7 139zM138 1532h100l260 -213l260 213h100
l-266 -422h-188z" />
    <glyph glyph-name="Cacute" unicode="&#x106;" horiz-adv-x="1452" 
d="M1292 1435l3 -74q0 -99 4 -180q12 -244 12 -245h-58q-52 218 -155.5 327t-253.5 109q-180 0 -292 -148t-112 -390q0 -104 18.5 -196t55.5 -169q70 -148 182.5 -228.5t247.5 -80.5q100 0 196 51.5t185 153.5l41 -39q-97 -175 -250 -265t-352 -90q-138 0 -246.5 40.5
t-195.5 123.5q-111 106 -171.5 254.5t-60.5 321.5q0 156 49.5 295.5t147 252t234 172.5t294.5 60q49 0 98.5 -7t122.5 -25q134 -32 181 -32l27 2zM1048 1811l-397 -207h-107l334 346q57 60 92 79t72 19q48 0 80.5 -32t32.5 -80q0 -37 -24 -67q-24 -27 -83 -58z" />
    <glyph glyph-name="cacute" unicode="&#x107;" horiz-adv-x="934" 
d="M858 352l47 -30q-63 -171 -169.5 -260t-243.5 -89q-196 0 -314.5 129.5t-118.5 343.5q0 243 137 391t359 148q143 0 229 -72t86 -192q0 -66 -28 -90.5t-109 -24.5q-73 0 -102 22t-35 81l-3 38q0 78 -25.5 119t-69.5 41q-77 0 -136 -90t-59 -221q0 -176 78.5 -278.5
t214.5 -102.5q82 0 148 35t114 102zM786 1317l-397 -207h-107l334 346q57 60 92 79t72 19q48 0 80.5 -32t32.5 -80q0 -37 -24 -67q-24 -27 -83 -58z" />
    <glyph glyph-name="Ccaron" unicode="&#x10c;" horiz-adv-x="1452" 
d="M1292 1435l3 -74q0 -99 4 -180q12 -244 12 -245h-58q-52 218 -155.5 327t-253.5 109q-180 0 -292 -148t-112 -390q0 -104 18.5 -196t55.5 -169q70 -148 182.5 -228.5t247.5 -80.5q100 0 196 51.5t185 153.5l41 -39q-97 -175 -250 -265t-352 -90q-138 0 -246.5 40.5
t-195.5 123.5q-111 106 -171.5 254.5t-60.5 321.5q0 156 49.5 295.5t147 252t234 172.5t294.5 60q49 0 98.5 -7t122.5 -25q134 -32 181 -32l27 2zM426 2026h100l260 -213l260 213h100l-266 -422h-188z" />
    <glyph glyph-name="ccaron" unicode="&#x10d;" horiz-adv-x="934" 
d="M858 352l47 -30q-63 -171 -169.5 -260t-243.5 -89q-196 0 -314.5 129.5t-118.5 343.5q0 243 137 391t359 148q143 0 229 -72t86 -192q0 -66 -28 -90.5t-109 -24.5q-73 0 -102 22t-35 81l-3 38q0 78 -25.5 119t-69.5 41q-77 0 -136 -90t-59 -221q0 -176 78.5 -278.5
t214.5 -102.5q82 0 148 35t114 102zM164 1532h100l260 -213l260 213h100l-266 -422h-188z" />
    <glyph glyph-name="dcroat" unicode="&#x111;" horiz-adv-x="1122" 
d="M682 676q0 83 -38.5 129.5t-111.5 46.5q-94 0 -153.5 -85t-59.5 -224q0 -165 63 -268t163 -103q70 0 103.5 44.5t33.5 139.5v320zM918 1544h38v-344h168v-84h-168v-878q0 -74 21 -94q11 -10 30 -15.5t47 -5.5l1 -53q-75 -15 -150 -39q-38 -12 -72 -25.5t-75 -32.5h-56
v201q-72 -97 -154.5 -149t-166.5 -52q-147 0 -233.5 123.5t-86.5 335.5q0 250 110 400.5t290 150.5q36 0 64 -7t61 -25q58 -31 96 -89v254h-283v84h283v64q0 68 -24 91q-12 11 -35.5 17.5t-59.5 6.5v57q94 9 181 36t174 72z" />
    <glyph glyph-name="Scedilla" unicode="&#x15e;" horiz-adv-x="1257" 
d="M584 -28q-39 0 -88.5 10.5t-121.5 30.5q-146 42 -204 42h-20l-3 232l-1 229h57q51 -196 156.5 -300.5t250.5 -104.5q108 0 181 61.5t73 153.5q0 67 -37 120t-120 101q-46 26 -93.5 51t-72.5 38q-100 52 -133 75q-153 101 -211 188t-58 201q0 167 129 279t322 112
q64 0 173 -23q54 -10 98 -16t69 -6h17h13q10 2 14 2l40 6q0 -8 -1 -29t-1 -34v-107v-113v-35.5t2 -37.5h-45q-48 145 -129.5 218t-192.5 73q-96 0 -158.5 -50.5t-62.5 -128.5q0 -118 230 -240l39 -19.5t42 -24.5l25 -14q178 -99 254 -179q53 -56 82.5 -133t29.5 -164
q0 -206 -141 -337q-66 -59 -144 -92.5t-171 -33.5v-104l36 6l40 2q97 0 154 -53t57 -143q0 -100 -70 -156.5t-194 -56.5q-68 0 -156.5 24t-204.5 76l51 113q84 -46 153 -69.5t122 -23.5q43 0 72.5 26.5t29.5 68.5q0 46 -26 69t-78 23h-18t-20 -2l-36 -6v205z" />
    <glyph glyph-name="scedilla" unicode="&#x15f;" horiz-adv-x="893" 
d="M401 -22q-30 5 -52.5 10t-53.5 14q-102 29 -143 29l-12 -1l-11 -1l4 134l2 128v53h51q21 -123 96.5 -197.5t176.5 -74.5q62 0 97.5 31.5t35.5 86.5q0 63 -140 142l-18 10q-192 105 -249.5 177.5t-57.5 174.5q0 126 85.5 207.5t219.5 81.5q46 0 125 -17.5t107 -17.5l37 1
q16 2 24 5l3 -104l7 -131h-47q-24 93 -84 144.5t-139 51.5q-56 0 -90.5 -31.5t-34.5 -82.5q0 -74 139 -146l80 -43q126 -70 174.5 -143.5t48.5 -177.5q0 -139 -90 -229q-43 -42 -93 -65t-110 -23v-105l36 6l40 2q97 0 154 -53t57 -143q0 -100 -70 -156.5t-194 -56.5
q-68 0 -156.5 24t-204.5 76l51 113q84 -46 153 -69.5t122 -23.5q43 0 72.5 26.5t29.5 68.5q0 46 -26 69t-78 23h-18t-20 -2l-36 -6v211z" />
    <glyph glyph-name="franc" unicode="&#x20a3;" horiz-adv-x="2077" 
d="M125 1468l151 -3l656 -1l155 1l80 3l5 -78l16 -257h-60q-42 126 -109 174.5t-198 48.5h-147q-59 0 -69.5 -10.5t-10.5 -67.5v-455h123q133 0 190 43t72 152h55l-5 -127l-1 -125l1 -127q0 -29 2.5 -74t2.5 -53h-55q-12 107 -70.5 152t-191.5 45h-123v-500q0 -93 26 -118
q26 -23 117 -32v-65q-49 4 -80 6.5t-71 2.5l-183 3l-134 -3q-31 0 -50 -1t-104 -8v65q83 9 108 33.5t25 116.5v1044q0 93 -24.5 117.5t-98.5 34.5v63zM1602 983h55v-233q72 126 129 177.5t121 51.5q76 0 105.5 -41t29.5 -154q0 -81 -26 -113t-91 -32q-54 0 -70.5 8.5
t-33.5 34.5q-5 7 -14 32q-15 46 -41 46q-12 0 -30 -17q-18 -15 -56 -59v-477q0 -92 22 -120.5t88 -37.5v-55l-113 6l-128 2q-22 0 -65 -1t-63 -1l-114 -6v55q57 12 76.5 40t19.5 118v514q0 72 -20 91q-9 9 -29 15.5t-47 6.5v55q63 9 135 33q35 11 74.5 26t85.5 35z" />
    <glyph glyph-name="Gbreve" unicode="&#x11e;" horiz-adv-x="1722" 
d="M1393 1440l1 -213q0 -51 2.5 -131.5t2.5 -97.5l-56 -1q-44 178 -160.5 282.5t-264.5 104.5q-206 0 -334.5 -163t-128.5 -428q0 -73 9 -140t29 -133t47.5 -122.5t65.5 -110.5q56 -82 142 -127t184 -45q77 0 137.5 25.5t89.5 70.5v309q0 88 -21 112t-94 38l1 63l128 -8
l177 -2q34 0 88.5 1t74.5 1q36 0 53.5 1.5t65.5 6.5v-63q-78 -9 -102.5 -34t-24.5 -116v-295q-110 -122 -275.5 -187t-367.5 -65q-167 0 -303.5 48t-243.5 145q-110 100 -169 237q-28 68 -42 142.5t-14 161.5q0 130 33 249t98 211q111 162 281.5 243t400.5 81
q82 0 217.5 -26.5t186.5 -26.5l43 1zM500 1987h92q19 -77 82 -112t188 -35q126 0 187.5 33.5t80.5 113.5h92q-24 -169 -116.5 -257.5t-243.5 -88.5q-154 0 -245 87.5t-117 258.5z" />
    <glyph glyph-name="gbreve" unicode="&#x11f;" horiz-adv-x="1053" 
d="M370 -52q-25 -32 -41 -67q-14 -34 -14 -63q0 -75 70 -120.5t184 -45.5q112 0 179 40t67 105q0 108 -368 144zM752 887l51 35q42 28 68.5 39.5t50.5 11.5q42 0 68 -26t26 -70q0 -33 -23.5 -56.5t-56.5 -23.5q-32 0 -59 28q-25 28 -29 29q-9 0 -33 -8l-18 -6
q37 -47 55 -104t18 -130q0 -146 -102.5 -238t-267.5 -92l-53 3q-27 3 -66 12q-25 -18 -37 -34t-12 -30q0 -29 162 -50l75 -9l13 -2q230 -30 292 -78q42 -31 67.5 -84.5t25.5 -112.5q0 -161 -145 -259.5t-390 -98.5q-186 0 -282.5 56t-96.5 163q0 66 54 119.5t165 95.5
q-89 20 -134.5 55.5t-45.5 83.5q0 50 52.5 98.5t172.5 110.5q-99 48 -151.5 129.5t-52.5 184.5q0 149 112 252.5t275 103.5q69 0 132.5 -24.5t119.5 -73.5zM463 893q-50 0 -80.5 -38t-30.5 -101q0 -151 56 -253t135 -102q48 0 73 35.5t25 104.5q0 153 -52 253.5t-126 100.5z
M164 1493h92q19 -77 82 -112t188 -35q126 0 187.5 33.5t80.5 113.5h92q-24 -169 -116.5 -257.5t-243.5 -88.5q-154 0 -245 87.5t-117 258.5z" />
    <glyph glyph-name="Idotaccent" unicode="&#x130;" horiz-adv-x="842" 
d="M109 1468l109 -8l159 -2q45 0 116 1t96 1q46 0 69 1.5t77 6.5v-63q-41 0 -69.5 -8.5t-44.5 -23.5q-27 -24 -27 -120v-1044q0 -92 26.5 -116.5t114.5 -33.5v-65q-45 4 -76.5 6.5t-71.5 2.5l-184 3l-135 -3q-28 0 -54 -2q-89 -7 -105 -7v65q87 9 113 32.5t26 117.5v1044
q0 94 -27 120q-26 23 -112 32v63zM424 1971q63 0 109.5 -46t46.5 -110q0 -65 -44.5 -110.5t-111.5 -45.5q-62 0 -109 45.5t-47 110.5q0 60 48 108t108 48z" />
    <glyph glyph-name="c274" unicode="&#x10e;" 
 />
    <glyph glyph-name="c275" unicode="&#x10f;" 
 />
    <glyph glyph-name="c276" unicode="&#x110;" 
 />
    <glyph glyph-name="Omega" unicode="&#x3a9;" horiz-adv-x="1569" 
d="M1133 258v-14h290l43 145h78l-117 -389h-530q98 217 147.5 432.5t49.5 421.5q0 140 -19 244t-58 173q-75 138 -231 138q-154 0 -231.5 -139t-77.5 -416q0 -105 12 -209t38 -213q51 -217 149 -432h-533l-116 389h75l45 -145h289v14q-164 87 -253 238.5t-89 343.5
q0 285 196.5 471t495.5 186q300 0 495.5 -186.5t195.5 -470.5q0 -191 -88.5 -340.5t-255.5 -241.5z" />
    <glyph glyph-name="pi" unicode="&#x3c0;" horiz-adv-x="1477" 
d="M1444 885l-60 -275h-348l-6 -117l-2 -81q0 -16 2 -62t2 -62l4 -106q0 -115 -38.5 -170t-120.5 -55q-50 0 -82 33q-29 32 -29 88q0 72 73 245q35 83 60.5 155t40.5 132h-375l-6 -121l-2 -77l3 -124l3 -106q0 -115 -38.5 -170t-121.5 -55q-50 0 -79 32t-29 89
q0 73 71.5 244t100.5 288h-156q-118 0 -166.5 -31.5t-66.5 -117.5h-64q45 236 138 330t284 94h1008z" />
    <glyph glyph-name="c279" unicode="&#x2015;" 
 />
    <glyph glyph-name="c280" unicode="&#x2016;" 
 />
    <glyph glyph-name="c281" unicode="&#x2017;" 
 />
    <glyph glyph-name="c282" unicode="&#x201b;" 
 />
    <glyph glyph-name="c283" unicode="&#x201f;" 
 />
    <glyph glyph-name="c284" unicode="&#x2023;" 
 />
    <glyph glyph-name="c285" unicode="&#x2024;" 
 />
    <glyph glyph-name="c286" unicode="&#x2025;" 
 />
    <glyph glyph-name="partialdiff" unicode="&#x2202;" horiz-adv-x="1094" 
d="M762 662q8 43 16 96q5 35 13 92q4 37 7 82t3 74q0 101 -26 158t-70 57q-43 0 -146 -73t-160 -73q-41 0 -70.5 30.5t-29.5 72.5q0 63 86.5 117.5t210.5 54.5q192 0 309 -161.5t117 -432.5q0 -339 -156.5 -560t-396.5 -221q-171 0 -282 114t-111 292q0 198 116 329.5
t287 131.5q103 0 169.5 -42.5t113.5 -137.5zM700 518q0 115 -38.5 177.5t-110.5 62.5q-101 0 -167.5 -134t-66.5 -341q0 -118 38.5 -178t111.5 -60q100 0 166.5 133.5t66.5 339.5z" />
    <glyph glyph-name="c288" unicode="&#x2203;" 
 />
    <glyph glyph-name="c289" unicode="&#x2204;" 
 />
    <glyph glyph-name="c290" unicode="&#x2205;" 
 />
    <glyph glyph-name="Delta" unicode="&#x2206;" horiz-adv-x="1350" 
d="M547 1116l-381 -827h764zM647 1497h68l692 -1497h-1460z" />
    <glyph glyph-name="product" unicode="&#x220f;" horiz-adv-x="1724" 
d="M47 1473h1624v-84h-190v-1698h190v-84h-698v84h178v1698h-582v-1698h176v-84h-698v84h191v1698h-191v84z" />
    <glyph glyph-name="c293" unicode="&#x2210;" 
 />
    <glyph glyph-name="c294" unicode="&#x2211;" horiz-adv-x="1542" 
d="M25 1473h1235l139 -429h-88l-92 250q-18 51 -60.5 73t-167.5 22h-557l666 -783v-41l-735 -680h886q48 0 65 12.5t27 51.5l72 229h88l-174 -571h-1309v71l822 756l-817 973v66z" />
    <glyph glyph-name="c295" unicode="&#x2212;" horiz-adv-x="1706" 
d="M254 713h1198v-203h-1198v203z" />
    <glyph glyph-name="c296" unicode="&#x2213;" 
 />
    <glyph glyph-name="c297" unicode="&#x2214;" 
 />
    <glyph glyph-name="c298" unicode="&#x2216;" 
 />
    <glyph glyph-name="c299" unicode="&#x2217;" 
 />
    <glyph glyph-name="c300" unicode="&#x2218;" 
 />
    <glyph glyph-name="radical" unicode="&#x221a;" horiz-adv-x="1346" 
d="M1141 1694h207v-129h-103l-592 -1606h-100l-311 858l-140 -51l-30 113l331 116l236 -661z" />
    <glyph glyph-name="c302" unicode="&#x221b;" 
 />
    <glyph glyph-name="c303" unicode="&#x221c;" 
 />
    <glyph glyph-name="c304" unicode="&#x221d;" 
 />
    <glyph glyph-name="infinity" unicode="&#x221e;" horiz-adv-x="1706" 
d="M942 561q44 -74 106 -112.5t140 -38.5q93 0 152 55.5t59 144.5q0 85 -54 142t-135 57q-73 0 -136 -57.5t-132 -190.5zM766 659q-45 74 -107 112t-139 38q-92 0 -151.5 -56.5t-59.5 -144.5q0 -83 54 -140.5t135 -57.5q76 0 138.5 57.5t129.5 191.5zM858 457
q-69 -131 -147.5 -194.5t-173.5 -63.5q-137 0 -234.5 117t-97.5 294q0 184 85.5 297t223.5 113q94 0 170 -58t164 -200q67 132 148 196t175 64q138 0 235 -118t97 -294q0 -183 -86 -296t-223 -113q-94 0 -168.5 56t-167.5 200z" />
    <glyph glyph-name="integral" unicode="&#x222b;" horiz-adv-x="1186" 
d="M342 -252q53 0 87 165t34 474l6 211q0 245 34 436q31 176 89 296q107 224 328 224q98 0 157.5 -48.5t59.5 -129.5q0 -60 -38 -96.5t-100 -36.5q-44 0 -77 24q-29 23 -41 68q-4 16 -7 54q0 22 -8 33.5t-22 13.5q-119 0 -119 -633l-6 -178q0 -105 -6.5 -212t-25.5 -245
t-58 -238q-56 -148 -148.5 -225.5t-214.5 -77.5q-96 0 -156.5 48.5t-60.5 127.5q0 61 39.5 98.5t104.5 37.5q50 0 85 -31.5t35 -71.5q0 -56 6 -72t23 -16z" />
    <glyph glyph-name="approxequal" unicode="&#x2248;" horiz-adv-x="1706" 
d="M1530 596v-219q-103 -71 -196.5 -105t-182.5 -34q-93 0 -287 66q-96 33 -170.5 50t-130.5 17q-41 0 -85 -9t-88.5 -27t-98 -48.5t-113.5 -73.5v219q112 73 207.5 108t179.5 35q123 0 315.5 -65.5t274.5 -65.5q45 0 86.5 8t87.5 27q87 36 201 117zM1530 1008v-220
q-103 -69 -195 -103t-182 -34q-95 0 -286.5 65.5t-303.5 65.5q-82 0 -170 -35t-215 -122v219q103 68 201.5 105.5t185.5 37.5q124 0 316.5 -65.5t273.5 -65.5q44 0 85 8t86 27q87 35 204 117z" />
    <glyph glyph-name="notequal" unicode="&#x2260;" horiz-adv-x="1706" 
d="M1198 1233l148 -119l-154 -192h260v-191h-389l-191 -239h580v-193h-707l-245 -309l-148 119l154 190h-252v193h377l190 239h-567v191h696z" />
    <glyph glyph-name="c309" unicode="&#x2261;" 
 />
    <glyph glyph-name="c310" unicode="&#x2262;" 
 />
    <glyph glyph-name="c311" unicode="&#x2263;" 
 />
    <glyph glyph-name="lessequal" unicode="&#x2264;" horiz-adv-x="1706" 
d="M258 195h1192v-197h-1192v197zM1448 1241v-209l-834 -264l834 -262v-209l-1190 385v174z" />
    <glyph glyph-name="greaterequal" unicode="&#x2265;" horiz-adv-x="1706" 
d="M258 195h1192v-197h-1192v197zM260 1241l1188 -385v-174l-1188 -385v209l832 262l-832 264v209z" />
    <glyph glyph-name="lozenge" unicode="&#x25ca;" horiz-adv-x="1012" 
d="M506 1409l-385 -817l385 -825l385 825zM506 1653l500 -1061l-500 -1069l-500 1069z" />
    <glyph glyph-name="apple" unicode="&#xf000;" horiz-adv-x="1618" 
d="M836 1216l-2 14v23q0 124 95 229t236 132l1 -23l1 -39q0 -131 -103.5 -234.5t-203.5 -103.5h-8l-8 1zM1505 403q-114 -246 -204.5 -342t-204.5 -96q-49 0 -131 33t-123 33q-44 0 -130.5 -33t-127.5 -33q-64 0 -128 44t-130 132q-100 137 -158 295q-27 78 -41 153t-14 148
q0 219 125 356.5t323 137.5q68 0 156.5 -34t122.5 -34q18 0 46 8t75 27q88 35 153 35q111 0 197.5 -39.5t161.5 -124.5q-101 -64 -151 -145.5t-50 -182.5q0 -111 60 -199.5t173 -138.5z" />
    </font>
</defs>
</svg>
